<?xml version="1.0" encoding="UTF-8" standalone="no"?>
<svg
   xmlns:dc="http://purl.org/dc/elements/1.1/"
   xmlns:cc="http://creativecommons.org/ns#"
   xmlns:rdf="http://www.w3.org/1999/02/22-rdf-syntax-ns#"
   xmlns:svg="http://www.w3.org/2000/svg"
   xmlns="http://www.w3.org/2000/svg"
   xmlns:sodipodi="http://sodipodi.sourceforge.net/DTD/sodipodi-0.dtd"
   xmlns:inkscape="http://www.inkscape.org/namespaces/inkscape"
   version="1.1"
   id="svg2"
   xml:space="preserve"
   width="1000"
   height="666.66669"
   viewBox="0 0 1000 666.66669"
   sodipodi:docname="3143370.eps"><metadata
     id="metadata8"><rdf:RDF><cc:Work
         rdf:about=""><dc:format>image/svg+xml</dc:format><dc:type
           rdf:resource="http://purl.org/dc/dcmitype/StillImage" /></cc:Work></rdf:RDF></metadata><defs
     id="defs6"><clipPath
       clipPathUnits="userSpaceOnUse"
       id="clipPath244"><path
         d="m 3437.51,2908.09 c 0,0 90.89,-71.64 254.68,-35.69 163.79,35.95 171.31,72.46 171.31,72.46 l 140.29,-41.28 87.89,-163.01 c 0,0 65.91,-139.82 65.91,-151.81 0,-11.98 -35.95,-195.74 -35.95,-195.74 l 57.92,-643.18 c 0,0 -102.87,-139.82 -371.02,-175.77 -268.15,-35.95 -435.12,67.91 -435.12,67.91 v 479.39 367.53 311.59 l -16.8,99.87 80.89,7.73"
         id="path242" /></clipPath></defs><sodipodi:namedview
     pagecolor="#ffffff"
     bordercolor="#666666"
     borderopacity="1"
     objecttolerance="10"
     gridtolerance="10"
     guidetolerance="10"
     inkscape:pageopacity="0"
     inkscape:pageshadow="2"
     inkscape:window-width="640"
     inkscape:window-height="480"
     id="namedview4" /><g
     id="g10"
     inkscape:groupmode="layer"
     inkscape:label="ink_ext_XXXXXX"
     transform="matrix(1.3333333,0,0,-1.3333333,0,666.66667)"><g
       id="g12"
       transform="scale(0.1)"><path
         d="m 2052.44,578.121 c -69.83,0.5 -139.29,2.5 -208.19,6.699 -17.05,373.469 -79.95,613.21 -122.86,737.11 11.37,25 14.99,62.6 14.67,102.09 52.27,-93.31 147.42,-222.29 170.35,-253.01 3.07,-4.11 3.41,-9.58 0.89,-14.06 -11.02,-19.44 -28.58,-71.78 -25,-82.57 2.47,-7.46 -5.47,-45.13 -3.08,-76.868 0.58,-7.621 6.78,-11.992 13.03,-11.992 4.46,0 8.93,2.218 11.42,7.062 l 7.56,14.748 0.52,0.92 15.52,25.01 c 2.61,4.21 6.78,6.13 10.91,6.13 6.06,0 12.05,-4.15 12.95,-11.35 l 4.96,-39.669 c 0.32,-2.512 -1.16,-4.769 -1.22,-7.301 -0.79,-36.949 -43.61,-82.601 -39.31,-94.441 0.89,-2.457 4.23,-3.738 9.3,-3.738 19.08,0 62.64,18.148 91.76,59.199 3.49,-121.379 13.64,-249.168 35.82,-363.969 m 420.53,9.449 57.77,464.37 69.76,-459.452 c -42.51,-1.578 -85.06,-3.269 -127.53,-4.918 m 3652.61,8.352 32.01,104.719 5.05,-99.239 c -12.33,-1.953 -24.68,-3.781 -37.06,-5.48 m -3076.8,6.348 c 12.48,91.781 42.36,359.601 8.04,616.92 l -1.58,39.11 111.23,-15.47 76.58,496.5 c 31.92,42.13 60.71,82.05 82.83,116.04 -1.16,-63.52 -1.93,-109.48 -4.06,-165 -3.34,-86.74 -40.03,-413.65 -40.03,-413.65 11.69,-17.99 41.42,-30.16 78.63,-38.34 l 21.63,-631.528 c -111.09,-1.43 -222.2,-3 -333.27,-4.582 m 709.56,8.73 72.62,215.48 -2.24,30.309 2.08,7.07 19.36,-252.129 c -30.57,-0.218 -61.26,-0.468 -91.82,-0.73 m 2911.93,173.102 c 34.09,148.296 85.33,210.257 86,339.738 6.47,42.24 5.37,140.63 -66.91,339.62 27.15,27.53 50.36,53.48 68.78,77.02 48.56,62.06 71.21,140.46 64.16,218.93 -6.34,70.79 -18.86,167.03 -36.4,265.97 91.55,65.53 149.9,182.45 79.22,259.98 -99.91,109.58 -100.84,201.9 -127.76,293.4 -26.91,91.51 -87.59,150.94 -177.43,176.27 -142.9,40.28 -111.63,107.1 -138.35,275.88 -23.56,148.77 -115.77,203.17 -192.06,203.17 -6.8,0 -13.48,-0.44 -19.98,-1.27 l 0.04,1.92 c 0,0 0.66,24.6 -69.65,35.32 -14.76,2.26 -29.02,3.35 -42.73,3.35 -59.41,0 -109,-20.46 -148.76,-55.88 24.22,176.19 40.27,348.59 40.27,348.59 l -42.45,9.9 6.1,40.64 1.67,5.4 c 34.17,8.47 53.66,44.89 67.63,72.67 13.95,27.78 40.76,57.67 63.25,74.49 22.5,16.83 76.09,68.53 63.27,81.4 -1.07,1.08 -2.51,1.57 -4.26,1.57 -8.98,0 -26.09,-13.05 -43.5,-26.1 -17.41,-13.05 -35.12,-26.1 -45.32,-26.1 -1.2,0 -2.29,0.18 -3.27,0.56 -19.24,7.53 23.63,48.08 23.63,48.08 0,0 64.33,79.01 41.89,86.54 -0.81,0.27 -1.67,0.41 -2.59,0.41 -24.45,0 -84.81,-93.41 -100.29,-96.98 -1.23,-0.29 -2.29,-0.42 -3.22,-0.42 -11.25,0 -2.09,19.14 -2.09,19.14 0,0 90.1,119.6 67.67,132.48 -1.78,1.02 -3.7,1.49 -5.73,1.49 -23.57,0 -61.78,-63.38 -61.78,-63.38 0,0 -39.08,-59.55 -54.12,-59.55 -1.01,0 -1.91,0.27 -2.69,0.85 -8.59,6.37 62.46,118.96 39.84,132.53 -2.24,1.35 -4.54,1.95 -6.87,1.95 -20.7,0 -43.49,-47.83 -43.49,-47.83 l -73.03,-149.67 c 0,0 -7.42,37.54 -11.62,73.91 -3.5,30.31 -24.14,34.66 -35.53,34.66 -2.27,0 -4.18,-0.17 -5.51,-0.35 -7.96,-1.05 2.44,-79.15 -1.94,-129.4 -4.38,-50.26 5.21,-65.25 -0.26,-124.06 -1.28,-13.76 -3.95,-28.15 -7.28,-42.12 l -0.61,-0.01 -2.84,-9.5 -40.78,9.5 -151,-616.92 c 0,0 -131.15,-244.25 -300.18,-263.28 -7.86,-0.14 -16.47,-0.28 -25.77,-0.41 1.24,20.77 17.32,310.46 -40.72,520.85 -44.52,161.38 -195.55,192.25 -232.56,197.44 l 0.06,0.96 c 0,0 -0.37,0 -1.09,0 -1.13,0 -3.14,-0.02 -5.91,-0.12 -0.85,0.08 -1.29,0.12 -1.29,0.12 l -0.03,-0.17 c -40.29,-1.75 -215.62,-20.3 -274.37,-209.42 -59.27,-190.76 -29.85,-433.35 -21.48,-491.56 -0.39,0.04 -0.8,0.07 -1.18,0.11 -59.41,26.61 -120.65,80.36 -174.3,137.63 119.76,236.65 113.4,426.92 113.4,426.92 l -70.05,128.32 c -113.42,174.35 -396.56,359.39 -396.56,359.39 -4.57,-9.25 -10.5,-18.67 -17.35,-28.06 l -3.91,2.58 c 0.24,9.71 0.05,20.42 -1.09,33.52 -4.39,50.25 6.02,128.35 -1.94,129.4 -1.33,0.18 -3.24,0.35 -5.52,0.35 -11.39,0 -32.02,-4.35 -35.52,-34.66 -2.13,-18.44 -5.08,-37.17 -7.48,-51.16 -9.62,12.04 -20.86,22.79 -30.92,32.15 l -46.25,94.77 c 0,0 -9.81,20.59 -22.41,34.76 406.35,168.11 872.77,270.65 1325.62,270.65 786.08,0 1531.02,-309.16 1848.21,-1121.09 157.16,-402.31 165.03,-932.96 97.34,-1358.15 C 7213.74,1408 7016.72,1004.61 6670.27,784.102 m -1013.16,83.597 c -45.59,196.831 -92.95,410.241 -159.89,549.241 -10.68,22.17 -21.73,42.28 -32.97,60.5 112.24,28.4 259.38,192.85 284.05,221.15 2.61,2.84 5.14,5.6 7.59,8.3 1.13,-22.6 1.77,-35.51 1.77,-35.51 0,0 -126.94,-536.62 -97.93,-575.3 l -2.62,-228.381 M 703.691,1038.17 C -1.85156,1716.52 -8.25,2997.5 794.031,3567.25 l -24.758,-322.48 c -5.562,-68.24 -0.421,-136.92 15.243,-203.56 0.031,-0.15 0.066,-0.29 0.101,-0.44 0.016,-0.06 0.031,-0.13 0.047,-0.19 0.055,-0.24 0.109,-0.47 0.164,-0.7 l 71.371,-300.84 -2.426,5.11 c 0,0 3.641,-13.2 9.547,-35.11 l 90.485,-381.39 c 2.136,-14.9 3.058,-26.35 2.414,-33.2 -0.071,-0.68 -0.145,-1.37 -0.215,-2.07 -0.039,-0.38 -0.082,-0.77 -0.121,-1.16 -9.863,-94.87 -28.035,-276.21 -30.059,-343.07 -2.797,-92.3 -123.054,-399.94 -142.636,-478.25 -11.083,-44.32 7.41,-68.04 38.738,-80.27 -24.653,-53.8 -50.352,-119.39 -75.528,-199.04 -16.66,-52.7 -30.765,-103.75 -42.707,-152.42 m 3598.209,72.31 c 0.75,67.39 0.05,134.23 -2.87,195.94 -0.28,5.93 -0.59,11.84 -0.94,17.7 20.7,9.37 39.27,20.18 54.53,32.66 0,0 13.34,156.78 -16.68,280.21 -30.03,123.43 -116.76,336.93 -123.43,495.38 -0.63,14.96 -1.07,30.41 -1.34,46.12 0.02,-0.09 0.03,-0.13 0.03,-0.13 l 9.58,325.51 c 25.01,21.28 48.49,42.73 70.65,64.37 81.69,-118.91 167.61,-233.4 220.93,-303 l 43.83,-61.46 0.57,4.08 c 3.53,-4.52 6.02,-7.68 7.34,-9.35 -5.58,-145.73 -1.89,-303.05 13.85,-449.48 -12.2,2.21 -18.78,3.55 -18.78,3.55 v -159.95 0 c 0.23,-0.06 0.43,-0.11 0.66,-0.17 -42.82,-43.6 -96.62,-109.91 -149.54,-206.23 -41.43,-75.43 -76.43,-172.13 -108.39,-275.75 m -2283.62,99.73 c -10.58,31.73 -25.04,95.12 -39.91,166.83 1.95,-6.92 3.98,-13.73 6.12,-20.44 8.68,-27.22 21.43,-48.8 37.56,-65.56 -1.37,-24.72 -2.67,-51.82 -3.77,-80.83 m -62.66,280.7 c -21.53,111.03 -39.95,213.88 -43.59,230.19 -0.38,1.68 -0.42,3.24 -0.12,4.93 2.95,16.46 19.96,114.45 32.17,246.18 8.64,84.56 15.97,184.26 17.43,287.62 1.82,-2.48 3.59,-4.84 5.34,-7.11 -17.49,-310.82 -37.15,-567.51 -11.23,-761.81 m 3539.33,490 -93.22,181.66 c 0,0.44 0.01,0.88 0.01,1.32 20.02,25.34 77.21,98.25 145.98,190.81 13.81,-42.6 26.78,-66.41 -11.93,-130.58 -25.54,-42.34 -20.51,-88.45 -4.56,-129.25 -22.19,-66.2 -36.28,-113.96 -36.28,-113.96 m -2365.73,565.77 c -85.47,258.8 -154.3,336.96 -265.01,355.96 -32.47,5.57 -61.69,7.64 -87.2,7.64 -8.48,0 -16.55,-0.23 -24.2,-0.64 -5.97,1.72 -12.05,3.34 -18.15,4.85 -7.1,22.74 -4.81,61.46 -13.7,79.16 -13.67,27.22 -41.37,35.43 -70.52,35.89 l 12.13,33.3 5.76,-13.05 c 12.3,18.96 31.53,80.18 31.53,80.18 l 8.39,-17.72 c 29.84,27.97 25.17,91.36 25.17,91.36 l 9.32,-14.91 c 7.93,21.22 10.49,46.73 10.02,72.58 8.03,13.73 11.62,30.31 11.6,46.47 -0.01,20.73 -5.96,40.76 -16.04,53.2 0.01,0.97 0.02,1.96 0.02,2.96 0,55.71 -8.39,88.93 -8.39,88.93 0,0 11.87,-36.11 15.06,-36.11 0.5,0 0.79,0.87 0.79,2.89 0,15 7.46,26.75 -12.12,61.05 -18.56,32.52 -14.5,33.37 -14.03,33.37 0.02,0 0.04,-0.01 0.04,-0.01 l 23.31,-23.7 v 0 c 0,0 -6.22,16.27 -14.88,35.47 18.53,-1.54 37.27,-2.36 56.29,-2.36 40,0.01 81.19,3.62 123.86,11.63 264.97,49.76 505.65,186.45 737.83,317.22 35.02,19.72 70.72,38.89 107.21,57.57 9.58,-11.6 19.58,-20.5 19.58,-20.5 l 132.13,-119.89 c 0,0 -40.83,3.6 -79.5,10.15 -3.76,0.64 -7.22,0.93 -10.41,0.93 -29.69,0 -35.99,-25.21 -37.16,-32.89 -1.3,-8.51 82.16,-21.15 132.55,-40.68 19.7,-7.64 34.49,-11.47 48.72,-14.68 12.01,-17.73 27.42,-33.36 48.32,-38.55 l 1.67,-5.39 6.1,-40.64 -42.45,-9.9 c 0,0 36.14,-388.28 81.82,-594.93 -20.02,-13.8 -39.87,-26.8 -58.66,-38.96 -6.77,-1.31 -13.72,-2.47 -20.87,-3.46 1.84,3.15 2.85,4.9 2.85,4.9 v 0 0 0 0 c -53.34,66 -99.08,108.41 -184.98,119.75 -0.24,2.41 -0.47,4.86 -0.7,7.37 7.75,1.22 16.46,1.9 26.2,1.9 6.82,0 14.14,-0.33 21.99,-1.05 0.86,-0.08 1.73,-0.12 2.62,-0.12 43.44,0.01 118.07,92.45 58.53,160.33 l -0.98,1.59 c -9.61,15.68 -15.67,33.08 -18,50.88 1.09,5.79 1.63,11.81 1.63,17.84 0.01,5.66 -0.46,11.33 -1.41,16.83 1.74,11.94 5.21,23.68 10.49,34.84 23.79,50.29 15.17,92.34 -12.42,124.31 -34.74,40.25 -2.83,42.93 -39.54,110.16 -10.44,19.1 -29.63,25.93 -51.77,25.93 -55.78,0 -130.22,-43.4 -130.22,-43.4 l -6.8,-2.48 c -8.44,1.14 -17.18,1.74 -26.25,1.77 -0.37,0 -0.72,0 -1.09,0 -75.84,0 -129.82,-28.24 -165.4,-72.54 -29.44,-12.16 -102.11,-47.06 -148.55,-111.21 -51.13,-70.63 11.81,-157.1 54.4,-190.25 42.59,-33.14 -15.67,-58.73 -14.68,-110.66 0.99,-51.92 53.18,-64.9 91.2,-67.9 2.32,-0.18 4.8,-0.26 7.43,-0.26 4.85,0 10.17,0.29 15.78,0.81 -172.55,-64.45 -198.44,-190.89 -198.89,-193.16 -0.02,-0.02 -0.04,-0.04 -0.06,-0.05 -2.63,-1.05 -108.49,-44.28 -134.85,-222.18 -3.39,-22.84 -7.63,-49.17 -12.46,-77.74 m -1718.72,152.93 -138.75,53.3 c -14.41,11.09 -31.6,22.45 -48.48,29.03 -105.41,145.36 -221.09,430.86 -221.09,430.86 v 0 c -6.711,13.64 -10.653,28.47 -11.59,43.64 l -26.805,414.1 c 40.445,20.9 82.435,40.18 126.105,57.8 166.3,67.11 345.12,99.58 524.38,99.58 11.55,0 23.14,-0.13 34.69,-0.4 l -62.43,-537.21 c -83.14,-13.25 -139.43,-83.25 -167.91,-169.55 -31.07,-94.14 -29.06,-207.66 7.27,-288.07 3.47,-7.69 7.7,-14.98 12.58,-21.81 l -27.97,-111.27 m 840.98,230.59 c -15.76,1.25 -30.57,1.85 -44.51,1.85 -5.9,0 -11.62,-0.11 -17.21,-0.32 -0.43,0.22 -0.87,0.42 -1.31,0.62 -95.19,42.94 -186.32,165.65 -232.35,235.25 l 2.21,3.79 -31.75,47.26 -0.62,-2.87 c -0.61,1.05 -0.93,1.59 -0.93,1.59 l -16.23,581.37 c 93.66,-18.68 185.58,-46.22 273.9,-82.29 82.95,-33.87 161.99,-71.26 240.8,-104.03 -94.91,-29.22 -144.87,-119.01 -158.74,-222.29 -8.54,6.32 -13.75,10.18 -13.75,10.18 0,0 -42.52,-134.24 -13.62,-211.61 l 9.32,14.91 c 0,0 -4.65,-63.39 25.17,-91.36 l 8.39,17.72 c 0,0 19.24,-61.22 31.54,-80.18 l 5.75,13.05 13.17,-36.14 c -8.53,-0.46 -17.36,-2.33 -27.28,-6.29 -46.29,-18.47 -28.02,-41.19 -51.95,-90.21 m 1736.15,35.04 c 0.25,0.1 0.37,0.13 0.37,0.13 l -0.37,-0.13 m -113.57,908.7 c -6.35,0 -28.49,20.81 -52.56,41.63 -5.8,5.01 -11.7,10.02 -17.53,14.74 10.53,5.2 20.96,10.29 31.6,15.4 12.44,-15.1 50.58,-63.1 39.61,-71.45 -0.29,-0.22 -0.66,-0.32 -1.12,-0.32 m 45.33,47.13 c -6.18,0 -15.05,7.93 -15.05,7.93 0,0 -11.96,15.97 -28.31,35.82 7.64,3.54 15.28,7.05 22.97,10.55 14.35,-21.29 26.57,-39.72 26.18,-46.51 -0.32,-5.84 -2.72,-7.79 -5.79,-7.79 m 49.91,31.45 c -0.81,0 -1.65,0.13 -2.51,0.38 -2.83,4.11 -4.53,6.71 -4.53,6.71 0,0 -10.31,17.09 -23.52,33.53 9.34,4.1 18.69,8.16 28.09,12.18 7.96,-21.52 14.46,-41.88 8.67,-49.41 -1.82,-2.36 -3.92,-3.39 -6.2,-3.39"
         style="fill:#d0ecdc;fill-opacity:1;fill-rule:nonzero;stroke:none"
         id="path14" /><path
         d="m 4611.73,2515.97 20.5,116.61 -293.51,468.14 c -9.59,11.78 -16.75,25.36 -21.05,39.93 l -152.31,509.87 -146.59,0.78 85.79,-571.54 c 9.91,-68.2 30.5,-134.41 61.01,-196.21 l 356.69,-612.61 89.47,245.03"
         style="fill:#f4a4a0;fill-opacity:1;fill-rule:nonzero;stroke:none"
         id="path16" /><path
         d="m 4193.7,3563.5 c 0,0 -30.76,70.33 -36.23,129.15 -5.47,58.8 4.12,73.8 -0.26,124.06 -4.39,50.25 6.02,128.35 -1.94,129.4 -7.97,1.06 -36.84,2.06 -41.04,-34.31 -4.2,-36.37 -11.61,-73.91 -11.61,-73.91 l -73.04,149.67 c 0,0 -28.19,59.19 -50.37,45.88 -22.61,-13.56 48.45,-126.16 39.85,-132.53 -12.3,-9.12 -56.8,58.7 -56.8,58.7 0,0 -45.08,74.77 -67.51,61.89 -22.44,-12.88 67.65,-132.48 67.65,-132.48 0,0 10.74,-22.43 -5.3,-18.72 -16.06,3.7 -80.43,104.1 -102.88,96.57 -22.44,-7.53 41.89,-86.54 41.89,-86.54 0,0 42.87,-40.55 23.64,-48.08 -9.31,-3.64 -29.14,10.95 -48.6,25.54 -20.79,15.58 -41.15,31.17 -47.76,24.52 -12.81,-12.86 40.77,-64.57 63.27,-81.39 22.49,-16.82 49.3,-46.71 63.25,-74.49 13.97,-27.78 33.46,-64.2 67.63,-72.68 l 31.08,-100.28 145.08,10.03"
         style="fill:#f4a4a0;fill-opacity:1;fill-rule:nonzero;stroke:none"
         id="path18" /><path
         d="m 5012.42,2472.34 c 0,0 -88.68,260.69 -238.27,266.76 -175.42,7.12 -402.99,361.62 -402.99,361.62 l -162.18,549.8 -226.12,-52.7 c 0,0 48.52,-521.29 104.18,-677.31 77.54,-217.31 478.14,-723.36 478.14,-723.36 l 447.24,275.19"
         style="fill:#fefae0;fill-opacity:1;fill-rule:nonzero;stroke:none"
         id="path20" /><path
         d="m 5004.32,3324.84 8.1,132.61 c 0,0 -216.14,4.63 -282.69,-209.59 -67.83,-218.31 -19.51,-504.52 -19.51,-504.52 l 190.42,-59.82 4.59,590.62 99.09,50.7"
         style="fill:#201c1c;fill-opacity:1;fill-rule:nonzero;stroke:none"
         id="path22" /><path
         d="m 4981.52,3324.84 22.61,132.61 c 0,0 189.92,-14 240.79,-198.4 60.23,-218.32 40.65,-522.03 40.65,-522.03 l -177.99,-53.5 -26.98,590.62 -99.08,50.7"
         style="fill:#201c1c;fill-opacity:1;fill-rule:nonzero;stroke:none"
         id="path24" /><path
         d="m 4769.94,2758.81 12.67,357.73 c 7.93,-76.79 35.12,-152.99 76.28,-207.48 v -105.64 c -6.42,4.29 -9.97,7.04 -9.97,7.04 l -78.98,-51.65"
         style="fill:#12110f;fill-opacity:1;fill-rule:nonzero;stroke:none"
         id="path26" /><path
         d="m 5231.14,2737.67 -94.64,72.79 c 0,0 -1.03,-0.8 -3,-2.22 l -3.83,104.3 c 19.99,25.1 35.83,58.16 46.92,95.39 6.09,18.36 10.71,36.83 13.71,55.71 11.42,1.89 21.44,8.68 29.52,18.3 l 17.19,-344.24 c -1.94,-0.01 -3.89,-0.02 -5.87,-0.03"
         style="fill:#12110f;fill-opacity:1;fill-rule:nonzero;stroke:none"
         id="path28" /><path
         d="m 5359.84,2484.26 -20.49,116.61 284.62,352.77 c 9.6,11.79 25.63,140.73 29.94,155.3 l 152.3,509.87 146.59,0.78 -85.8,-571.54 c -9.9,-68.2 -30.49,-134.41 -60.99,-196.21 l -356.69,-612.61 -89.48,245.03"
         style="fill:#f4a4a0;fill-opacity:1;fill-rule:nonzero;stroke:none"
         id="path30" /><path
         d="m 5777.86,3531.79 c 0,0 30.76,70.33 36.24,129.15 5.47,58.81 -4.12,73.8 0.26,124.06 4.38,50.25 -6.02,128.35 1.94,129.4 7.96,1.06 36.84,2.06 41.04,-34.31 4.2,-36.37 11.62,-73.91 11.62,-73.91 l 73.03,149.67 c 0,0 28.19,59.19 50.36,45.88 22.62,-13.57 -48.43,-126.16 -39.84,-132.53 12.31,-9.12 56.81,58.7 56.81,58.7 0,0 45.07,74.77 67.51,61.89 22.43,-12.88 -67.67,-132.48 -67.67,-132.48 0,0 -10.74,-22.43 5.31,-18.72 16.06,3.71 80.43,104.11 102.88,96.57 22.44,-7.53 -41.89,-86.54 -41.89,-86.54 0,0 -42.87,-40.55 -23.63,-48.08 9.3,-3.64 29.13,10.95 48.59,25.54 20.79,15.58 41.15,31.17 47.76,24.53 12.82,-12.87 -40.77,-64.57 -63.27,-81.4 -22.49,-16.82 -49.3,-46.71 -63.25,-74.49 -13.97,-27.78 -33.46,-64.2 -67.63,-72.67 l -31.09,-100.29 -145.08,10.03"
         style="fill:#f4a4a0;fill-opacity:1;fill-rule:nonzero;stroke:none"
         id="path32" /><path
         d="m 5892.16,3696.33 c 8.21,30.9 -19.86,104.94 -19.86,104.94 12.17,-18.33 44.59,-59.52 44.59,-59.52 l -24.73,-45.42"
         style="fill:#f19591;fill-opacity:1;fill-rule:nonzero;stroke:none"
         id="path34" /><path
         d="m 4959.15,2440.64 c 0,0 189.35,290.88 338.96,296.95 175.41,7.12 313.48,264.3 313.48,264.3 l 151,616.92 226.12,-52.7 c 0,0 -48.52,-521.29 -104.19,-677.31 -77.53,-217.31 -490.43,-734.55 -490.43,-734.55 l -434.94,286.39"
         style="fill:#fefae0;fill-opacity:1;fill-rule:nonzero;stroke:none"
         id="path36" /><path
         d="m 4858.89,3033.48 v -271.63 c 0,0 124.63,-42.73 197.35,-35.17 72.71,7.55 78.31,53.1 78.31,53.1 l -12.37,253.7 h -263.29"
         style="fill:#f4a4a0;fill-opacity:1;fill-rule:nonzero;stroke:none"
         id="path38" /><path
         d="m 5133.17,2808.01 -5,102.67 c 0.5,0.62 1,1.23 1.5,1.86 l 3.83,-104.3 c -0.1,-0.07 -0.21,-0.15 -0.33,-0.23"
         style="fill:#12100f;fill-opacity:1;fill-rule:nonzero;stroke:none"
         id="path40" /><path
         d="m 5087.65,2781.12 c -139.32,14.48 -220.74,117.8 -220.74,117.8 28.77,-34.63 74.57,-52.83 122.04,-52.83 11.29,0 22.69,1.04 33.96,3.12 -0.2,-0.56 -0.4,-1.12 -0.6,-1.68 7.14,1.35 15.03,3.89 23.27,7.37 27.24,8.69 52.94,23.91 73.98,46.01 2.94,3.09 5.82,6.36 8.61,9.77 l 5,-102.67 c -6.7,-4.8 -23.11,-15.94 -45.52,-26.89"
         style="fill:#ed7c79;fill-opacity:1;fill-rule:nonzero;stroke:none"
         id="path42" /><path
         d="m 4697.26,2757.31 c -124.76,11.57 -199.61,-859.53 -61.35,-1313.34 0,0 206.48,-0.79 228.17,5.54 8.3,2.42 20.72,-3.39 38.77,-9.21 29.11,-9.38 72.84,-18.75 137.47,6.4 0,0 252.38,-93.59 270.42,-28.05 164.57,598.04 55.93,1321.27 55.93,1321.27 0,0 -354.25,-11.86 -669.41,17.39"
         style="fill:#fefae0;fill-opacity:1;fill-rule:nonzero;stroke:none"
         id="path44" /><path
         d="m 4769.68,2751.32 c -3.35,0.25 -6.7,0.5 -10.04,0.75 l 10.3,6.74 -0.26,-7.49"
         style="fill:#1f1a16;fill-opacity:1;fill-rule:nonzero;stroke:none"
         id="path46" /><path
         d="m 4925.43,2742.62 c -8.08,0.33 -16.18,0.67 -24.33,1.04 l 0.05,5.35 c 7.45,-2.07 15.63,-4.24 24.28,-6.39"
         style="fill:#1b1916;fill-opacity:1;fill-rule:nonzero;stroke:none"
         id="path48" /><path
         d="m 4901.1,2743.66 c -43.29,1.94 -87.44,4.45 -131.42,7.66 l 0.26,7.49 78.98,51.65 c 0,0 3.55,-2.75 9.97,-7.04 v -41.57 c 0,0 17.07,-5.86 42.26,-12.84 l -0.05,-5.35"
         style="fill:#12110f;fill-opacity:1;fill-rule:nonzero;stroke:none"
         id="path50" /><path
         d="m 4989.97,2740.38 c -21.16,0.62 -42.69,1.36 -64.54,2.24 -8.65,2.15 -16.83,4.32 -24.28,6.39 -25.19,6.98 -42.26,12.84 -42.26,12.84 v 41.57 c 21.37,-14.29 74.48,-45.65 133.81,-49.37 0,0 -0.71,-5.34 -2.73,-13.67"
         style="fill:#ee9169;fill-opacity:1;fill-rule:nonzero;stroke:none"
         id="path52" /><path
         d="m 4891.29,2642.88 c -1.07,0 -2.14,0.02 -3.22,0.05 -89.5,2.8 -136.29,104 -136.29,104 l 7.86,5.14 c 3.34,-0.25 6.69,-0.5 10.04,-0.75 43.98,-3.21 88.13,-5.72 131.42,-7.66 8.15,-0.37 16.25,-0.71 24.33,-1.04 21.85,-0.88 43.38,-1.62 64.54,-2.24 -2.03,-8.39 -5.38,-19.81 -10.68,-31.88 -1.88,0.76 -3.63,1.16 -5.22,1.16 -0.88,0 -1.71,-0.12 -2.49,-0.37 -6.27,-2.02 -5.9,-9.66 -2.09,-19.63 -15.11,-24.57 -39.48,-46.78 -78.2,-46.78"
         style="fill:#f8de92;fill-opacity:1;fill-rule:nonzero;stroke:none"
         id="path54" /><path
         d="m 5188.8,2737.54 c -14.8,0 -30.28,0.05 -46.36,0.15 -3.75,6.83 -9.3,16.04 -15.69,23.75 6.79,10.07 7.8,18.34 7.8,18.34 v 0 0 l -1.05,28.46 c 1.97,1.42 3,2.22 3,2.22 l 94.64,-72.79 c -13.35,-0.08 -27.51,-0.13 -42.34,-0.13"
         style="fill:#12110f;fill-opacity:1;fill-rule:nonzero;stroke:none"
         id="path56" /><path
         d="m 5098.39,2738.11 c -14.73,0.19 -29.84,0.43 -45.26,0.73 -7.03,8.55 -14.68,16.5 -21.93,21.33 21,5.25 40.28,13.05 56.45,20.95 10.49,-1.09 21.3,-1.67 32.44,-1.67 4.77,0 9.57,0.11 14.46,0.33 0,0 -1.01,-8.27 -7.8,-18.34 -6.88,8.29 -14.74,14.84 -22.39,14.84 -2.27,0 -4.53,-0.58 -6.73,-1.87 -7.24,-4.22 -5.17,-18.52 0.76,-36.3 m -85.67,1.64 c -5.59,0.14 -11.22,0.3 -16.87,0.46 -2.34,8.37 -3.15,13.84 -3.15,13.84 5.56,0.35 11.05,0.94 16.47,1.73 -0.08,-4.19 1.23,-9.68 3.55,-16.03"
         style="fill:#ee9169;fill-opacity:1;fill-rule:nonzero;stroke:none"
         id="path58" /><path
         d="m 5134.55,2779.78 -1.38,28.23 c 0.12,0.08 0.23,0.16 0.33,0.23 l 1.05,-28.46"
         style="fill:#13110f;fill-opacity:1;fill-rule:nonzero;stroke:none"
         id="path60" /><path
         d="m 5120.09,2779.45 c -11.14,0 -21.95,0.58 -32.44,1.67 22.41,10.95 38.82,22.09 45.52,26.89 l 1.38,-28.23 v 0 c -4.89,-0.22 -9.69,-0.33 -14.46,-0.33"
         style="fill:#e66c4f;fill-opacity:1;fill-rule:nonzero;stroke:none"
         id="path62" /><path
         d="m 5113.17,2655.43 c -15.99,17.87 -33.46,45.23 -33.46,45.23 0,0 -11.94,20.38 -26.58,38.18 15.42,-0.3 30.53,-0.54 45.26,-0.73 8.58,-25.74 25.24,-58.75 33.45,-78.93 -5.97,-1.59 -12.19,-2.87 -18.67,-3.75 m -55.88,5.62 c -39.09,16.39 -55.39,57.5 -61.44,79.16 5.65,-0.16 11.28,-0.32 16.87,-0.46 8.11,-22.18 28.53,-54.78 44.57,-78.7 m 114.61,15.14 -24.4,51.63 c 0,0 -1.88,4.08 -5.06,9.87 16.08,-0.1 31.56,-0.15 46.36,-0.15 14.83,0 28.99,0.05 42.34,0.13 l 2.5,-1.93 c 0,0 -20.99,-35.36 -61.74,-59.55"
         style="fill:#f8de92;fill-opacity:1;fill-rule:nonzero;stroke:none"
         id="path64" /><path
         d="m 5740.62,569.141 c -0.94,2.859 -1.88,1.429 -2.82,0.007 -0.94,-1.418 -1.87,-2.839 -2.8,-0.007 -76.67,233.66 -133.43,631.129 -237.78,847.799 -104.35,216.67 -244.55,235.93 -244.55,235.93 l -380.94,-66.56 -193.2,44.52 -32.43,33.19 c 0,0 -120.02,-67.01 -235.81,-277.79 -115.79,-210.78 -181.38,-587.859 -270.45,-817.089 -1.44,-3.711 -2.89,-1.852 -4.35,0.007 -1.47,1.872 -2.95,3.731 -4.44,-0.007 h 1609.57"
         style="fill:#236c55;fill-opacity:1;fill-rule:nonzero;stroke:none"
         id="path66" /><path
         d="m 5105.36,567.559 c -2.11,0 -3.67,0.543 -4.73,1.582 h 12.54 v 0 c -3.15,-1.071 -5.74,-1.582 -7.81,-1.582"
         style="fill:#59a48e;fill-opacity:1;fill-rule:nonzero;stroke:none"
         id="path68" /><path
         d="m 5736.18,567.512 c -0.4,0 -0.79,0.429 -1.18,1.629 h 2.79 c -0.54,-0.821 -1.08,-1.629 -1.61,-1.629 m -82.48,1.629 h -420.06 c 0,0 61.3,61.75 64.55,95.308 0.46,4.68 -1.23,6.731 -4.7,6.731 -21.4,0 -110.53,-78.461 -180.32,-102.039 h -12.54 c -24.58,24.25 222.16,320.129 220.75,463.829 -0.44,44.29 -6.81,61.22 -16.85,61.22 -25.3,0 -73.84,-107.71 -108.93,-156.03 -2.61,-3.609 -4.6,-5.308 -6.04,-5.308 -25.43,0 123.88,533.458 124.88,537.048 -15.41,32.9 -31.79,61.41 -48.41,86.06 9.73,2.14 18.86,4.32 27.39,6.49 36.46,-55.17 80.96,-89.47 135.25,-89.49 4.2,0 8.43,0.21 12.75,0.62 v 0 0 c 7.41,0.57 15.03,1.89 22.83,3.86 11.24,-18.22 22.29,-38.33 32.97,-60.5 66.94,-139 114.3,-352.41 159.89,-549.241 l -3.41,-298.558"
         style="fill:#18402f;fill-opacity:1;fill-rule:nonzero;stroke:none"
         id="path70" /><path
         d="m 4848.92,2821.65 c 0,0 66.64,-51.57 143.79,-56.42 0,0 -15.15,-113.91 -104.64,-111.11 -89.5,2.79 -136.29,104 -136.29,104 l 97.14,63.53"
         style="fill:#264387;fill-opacity:1;fill-rule:nonzero;stroke:none"
         id="path72" /><path
         d="m 5136.5,2821.65 c 0,0 -66.65,-51.57 -143.79,-56.42 0,0 15.14,-102.73 104.63,-99.93 89.51,2.8 136.3,81.63 136.3,81.63 l -97.14,74.72"
         style="fill:#264387;fill-opacity:1;fill-rule:nonzero;stroke:none"
         id="path74" /><path
         d="m 4780.71,3183.41 c 6.33,126.87 71.62,237.98 221.15,232.58 229.91,-8.31 235.05,-391.83 117.7,-515.08 -71.15,-74.73 -195.5,-70.78 -252.65,-1.99 -58.17,70.01 -91.28,182.36 -86.2,284.49"
         style="fill:#f4a4a0;fill-opacity:1;fill-rule:nonzero;stroke:none"
         id="path76" /><path
         d="m 5022.31,2847.53 c 0.2,0.56 0.4,1.12 0.6,1.68 7.63,1.41 15.21,3.3 22.67,5.69 -8.24,-3.48 -16.13,-6.02 -23.27,-7.37"
         style="fill:#e96e6d;fill-opacity:1;fill-rule:nonzero;stroke:none"
         id="path78" /><path
         d="m 5176.59,3007.93 c 5.27,17.71 9.46,36.35 12.52,55.53 0.4,0.06 0.79,0.12 1.19,0.18 -3,-18.88 -7.62,-37.35 -13.71,-55.71"
         style="fill:#12110f;fill-opacity:1;fill-rule:nonzero;stroke:none"
         id="path80" /><path
         d="m 5022.91,2849.21 c 23.76,67.29 -22.37,129.63 3.32,155.92 32.04,32.79 -8.65,27.4 -23.09,136.75 -1.53,11.62 -1.81,26.03 -1.35,41.26 l 107.65,0.71 15.57,122.89 14.64,-123.51 32.32,-0.67 c 2.68,20.98 3.45,40.04 2.73,57.33 1.83,-6.92 3.64,-13.91 5.46,-20.92 2.12,-8.11 3.99,-16.08 5.62,-23.91 -12.36,-9.79 -19.64,-27.09 -19.64,-27.09 l -16.69,-91.07 v 0 c 12.24,-9.67 23.81,-13.79 34.35,-13.79 1.8,0 3.57,0.12 5.31,0.35 -3.06,-19.18 -7.25,-37.82 -12.52,-55.53 -7.9,-23.77 -18.29,-47.34 -30.9,-71.38 -15.1,-28.8 -61.53,-65.4 -100.11,-81.65 -7.46,-2.39 -15.04,-4.28 -22.67,-5.69"
         style="fill:#f19591;fill-opacity:1;fill-rule:nonzero;stroke:none"
         id="path82" /><path
         d="m 5083.37,3398.95 c 0,0 32.91,69.68 -137.87,28.41 -170.78,-41.27 -178.23,-245.78 -178.23,-245.78 l 342.17,2.27 15.57,122.89 14.64,-123.51 32.32,-0.67 c 22.41,175.43 -88.6,216.39 -88.6,216.39"
         style="fill:#201c1c;fill-opacity:1;fill-rule:nonzero;stroke:none"
         id="path84" /><path
         d="m 4823.43,3167.97 c 0,0 -25.76,61.28 -62.73,18.45 -36.95,-42.83 10.59,-163.9 79.42,-109.52"
         style="fill:#f4a4a0;fill-opacity:1;fill-rule:nonzero;stroke:none"
         id="path86" /><path
         d="m 5166.14,3167.97 c 0,0 25.76,61.28 62.73,18.45 36.96,-42.83 -10.59,-163.9 -79.42,-109.52 l 16.69,91.07"
         style="fill:#f4a4a0;fill-opacity:1;fill-rule:nonzero;stroke:none"
         id="path88" /><path
         d="m 5183.8,3063.11 c -10.54,0 -22.11,4.12 -34.35,13.79 l 16.69,91.07 c 0,0 14.15,33.65 36.52,33.65 7.81,0 16.63,-4.11 26.21,-15.2 8.87,-10.28 12.87,-25.08 12.88,-40.86 0.02,-38.29 -23.46,-82.45 -57.95,-82.45"
         style="fill:#f19591;fill-opacity:1;fill-rule:nonzero;stroke:none"
         id="path90" /><path
         d="m 4559.17,1752.58 c 0,0 466.31,-95.09 824.29,0 v -159.95 c 0,0 -281.55,-139.3 -824.29,0 v 159.95"
         style="fill:#236c55;fill-opacity:1;fill-rule:nonzero;stroke:none"
         id="path92" /><path
         d="m 5612.78,2878.72 c 12.45,19 -1.19,128.76 -1.19,128.76 L 5573.35,2945 c 0,0 26.97,-85.29 39.43,-66.28"
         style="fill:#f8e4ac;fill-opacity:1;fill-rule:nonzero;stroke:none"
         id="path94" /><path
         d="m 4556.19,2203.78 -43.83,61.46 c 20.08,-26.22 35.53,-46.06 44.4,-57.38 l -0.57,-4.08"
         style="fill:#c5d193;fill-opacity:1;fill-rule:nonzero;stroke:none"
         id="path96" /><path
         d="m 4556.76,2207.86 c -8.87,11.32 -24.32,31.16 -44.4,57.38 l -218.09,305.78 c 6.29,6.17 12.48,12.37 18.55,18.56 l 260.88,-237.95 c -1.48,-16.66 -2.83,-33.55 -4.05,-50.77 l -12.89,-93"
         style="fill:#f8de92;fill-opacity:1;fill-rule:nonzero;stroke:none"
         id="path98" /><path
         d="m 4569.65,2300.86 c 1.22,17.22 2.57,34.11 4.05,50.77 l 2.66,-2.42 -6.71,-48.35"
         style="fill:#f8de92;fill-opacity:1;fill-rule:nonzero;stroke:none"
         id="path100" /><path
         d="m 5401.77,2168.86 c 0.21,34.44 -0.02,67.96 -0.6,100.44 l 3.88,46.35 128.25,111.84 c 1.92,-29.72 7.65,-51.52 13.45,-69.78 l -144.98,-188.85"
         style="fill:#f8de92;fill-opacity:1;fill-rule:nonzero;stroke:none"
         id="path102" /><path
         d="m 5399.81,2166.31 -6.25,12.18 7.61,90.81 c 0.58,-32.48 0.81,-66 0.6,-100.44 l -1.96,-2.55"
         style="fill:#f8de92;fill-opacity:1;fill-rule:nonzero;stroke:none"
         id="path104" /><path
         d="m 4998.68,2368.29 c -19.25,0 -36.23,9.91 -42.02,26.38 -7.71,21.94 7.39,47.22 33.72,56.45 6.56,2.31 13.2,3.4 19.59,3.4 19.25,0 36.24,-9.91 42.02,-26.38 7.7,-21.94 -7.4,-47.21 -33.72,-56.45 -6.56,-2.3 -13.2,-3.4 -19.59,-3.4"
         style="fill:#f8de92;fill-opacity:1;fill-rule:nonzero;stroke:none"
         id="path106" /><path
         d="m 5009.66,2185.05 c -6,0 -12.22,0.95 -18.39,2.97 -26.52,8.65 -42.18,33.58 -34.97,55.68 5.53,16.97 22.92,27.33 42.7,27.33 6,0 12.21,-0.95 18.38,-2.96 26.53,-8.66 42.18,-33.59 34.97,-55.7 -5.53,-16.95 -22.92,-27.32 -42.69,-27.32"
         style="fill:#f8de92;fill-opacity:1;fill-rule:nonzero;stroke:none"
         id="path108" /><path
         d="m 4997.23,2000.73 c -16.36,0 -31.1,7.53 -37.99,21.16 -10.49,20.76 1.2,47.78 26.1,60.36 8.54,4.32 17.54,6.37 26.08,6.37 16.37,0 31.1,-7.53 37.99,-21.16 10.49,-20.75 -1.2,-47.77 -26.1,-60.36 -8.54,-4.32 -17.53,-6.37 -26.08,-6.37"
         style="fill:#f8de92;fill-opacity:1;fill-rule:nonzero;stroke:none"
         id="path110" /><path
         d="m 5009.66,1818.32 c -6,0 -12.22,0.96 -18.39,2.97 -26.52,8.65 -42.18,33.58 -34.97,55.68 5.53,16.96 22.92,27.33 42.69,27.33 6,0 12.22,-0.96 18.39,-2.97 26.53,-8.65 42.18,-33.59 34.97,-55.68 -5.53,-16.96 -22.92,-27.33 -42.69,-27.33"
         style="fill:#f8de92;fill-opacity:1;fill-rule:nonzero;stroke:none"
         id="path112" /><path
         d="m 5040.8,2439.33 c 7.71,-21.94 -7.39,-47.22 -33.72,-56.46 -26.32,-9.24 -53.91,1.06 -61.61,22.99 -7.7,21.93 7.4,47.22 33.72,56.45 26.33,9.24 53.92,-1.05 61.61,-22.98"
         style="fill:#264387;fill-opacity:1;fill-rule:nonzero;stroke:none"
         id="path114" /><path
         d="m 5041.16,2223.56 c -7.2,-22.1 -34.55,-33 -61.07,-24.35 -26.53,8.64 -42.19,33.58 -34.98,55.68 7.21,22.1 34.56,33.01 61.08,24.36 26.52,-8.65 42.19,-33.59 34.97,-55.69"
         style="fill:#264387;fill-opacity:1;fill-rule:nonzero;stroke:none"
         id="path116" /><path
         d="m 5038.22,2078.64 c 10.49,-20.75 -1.2,-47.77 -26.1,-60.35 -24.89,-12.59 -53.58,-5.97 -64.07,14.79 -10.48,20.75 1.2,47.77 26.1,60.36 24.9,12.58 53.59,5.95 64.07,-14.8"
         style="fill:#264387;fill-opacity:1;fill-rule:nonzero;stroke:none"
         id="path118" /><path
         d="m 5041.16,1856.83 c -7.2,-22.1 -34.55,-33.01 -61.07,-24.36 -26.53,8.65 -42.19,33.58 -34.98,55.69 7.21,22.1 34.56,33.01 61.08,24.36 26.52,-8.65 42.19,-33.58 34.97,-55.69"
         style="fill:#264387;fill-opacity:1;fill-rule:nonzero;stroke:none"
         id="path120" /><path
         d="m 5014.09,1530.72 c -122.12,0 -273.98,15.47 -454.92,61.91 v 159.95 c 0,0 207.27,-42.26 451.48,-42.26 68.87,0 140.64,3.35 211.58,11.97 19.43,-61.64 42.89,-117.02 71.19,-159.84 -8.53,-2.17 -17.66,-4.35 -27.39,-6.49 -60.76,-13.35 -144.93,-25.24 -251.94,-25.24"
         style="fill:#18402f;fill-opacity:1;fill-rule:nonzero;stroke:none"
         id="path122" /><path
         d="m 1837.52,3834.53 c 0,0 9.87,88.43 38.46,150.64 28.58,62.21 46.9,71.7 71.61,124.69 24.72,53 80.42,125.36 73.03,131.04 -7.38,5.67 -35.79,23.41 -61.07,-10.67 -25.3,-34.08 -54.49,-67.47 -54.49,-67.47 l 13.4,192.57 c 0,0 5.99,75.75 -23.98,75.24 -30.56,-0.52 -24.46,-154.73 -36.78,-156.14 -17.64,-2.02 -23.02,91.85 -23.02,91.85 0,0 -1.93,101.18 -31.91,101.24 -29.99,0.07 -8.84,-172.19 -8.84,-172.19 0,0 -2.21,-28.75 -16.18,-15.72 -13.96,13.02 -20.42,151.11 -47.32,156.55 -26.9,5.44 -8.09,-111.15 -8.09,-111.15 0,0 19.54,-65.55 -4.13,-61.96 -23.67,3.59 -47.42,111.58 -67.73,106.09 -20.31,-5.49 3.52,-88.45 16.36,-118.36 12.84,-29.92 22.43,-75.46 20.35,-111.44 -2.08,-35.97 -3.62,-83.83 25.77,-112.14 l -26.89,-118.68 151.45,-73.99"
         style="fill:#f4a4a0;fill-opacity:1;fill-rule:nonzero;stroke:none"
         id="path124" /><path
         d="m 1818.12,4065.93 1.49,59.92 c 0,0 56.41,22.58 79.24,33.92 0,0 -71.07,-58.07 -80.73,-93.84"
         style="fill:#f19591;fill-opacity:1;fill-rule:nonzero;stroke:none"
         id="path126" /><path
         d="m 2122.29,1489.19 -89.03,-47.13 c 0,0 -52.36,-506.361 20.95,-872.919 h 416.47 l 60.06,482.799 73.31,-482.799 h 439.87 c 0,0 109.97,663.459 -99.49,1009.069 -209.46,345.62 -822.14,-89.02 -822.14,-89.02"
         style="fill:#264387;fill-opacity:1;fill-rule:nonzero;stroke:none"
         id="path128" /><path
         d="m 3056.82,1219.19 c -1.77,13.27 -3.71,26.51 -5.84,39.7 l 4.26,-0.59 1.58,-39.11"
         style="fill:#5c87a7;fill-opacity:1;fill-rule:nonzero;stroke:none"
         id="path130" /><path
         d="m 2935.86,903.699 c 0,0 -37.17,119.761 -57.62,169.741 -8.17,19.99 -10.54,55.6 -10.43,91.15 0.24,79.54 -11.06,158.7 -35.41,234.41 31.86,-18.31 66.45,-34.75 92.74,-38.28 v -84.32 l 125.84,-17.51 c 2.13,-13.19 4.07,-26.43 5.84,-39.7 L 3064.53,1028 2935.86,903.699"
         style="fill:#212e5d;fill-opacity:1;fill-rule:nonzero;stroke:none"
         id="path132" /><path
         d="m 1903.69,3981.01 21.32,-763.64 c 0,0 127.59,-223.73 263.44,-285.02 136.44,-61.54 -106.73,-810.06 -211.38,-692.06 -93.81,105.78 -300.82,592.27 -374.95,778.28 -23.35,58.6 -32.15,121.92 -25.7,184.67 l 92.61,796.97 234.66,-19.2"
         style="fill:#fefae0;fill-opacity:1;fill-rule:nonzero;stroke:none"
         id="path134" /><path
         d="m 3099.46,1279.77 12,-192.69 c 1.17,-18.91 -3.51,-37.71 -13.41,-53.86 l -56.31,-91.829 c -6.74,-11 -16.04,-20.192 -27.1,-26.84 -18.33,-11.031 -46.91,-27.551 -62.38,-33.071 -12.25,-4.351 -15.83,8.551 -16.4,22.219 -0.66,15.762 6.21,30.91 18.1,41.27 l 27.77,24.203 c 4.63,4.027 7.79,9.488 8.99,15.508 l 20.6,103.6 c 1.06,5.34 -1.21,10.79 -5.74,13.8 l -12.99,8.6 c -8.15,5.4 -19.15,0.55 -20.66,-9.11 l -13.07,-83.51 c -1.99,-12.74 -17.92,-17.39 -26.44,-7.71 l -10.51,11.94 c -5.12,5.81 -8.63,12.87 -10.17,20.45 l -18.27,90.31 c -3.28,16.23 -0.76,33.08 7.13,47.64 l 58.06,107.15 140.8,-8.07"
         style="fill:#f4a4a0;fill-opacity:1;fill-rule:nonzero;stroke:none"
         id="path136" /><path
         d="m 2729.13,3400.31 c 0,0 42.52,-134.24 13.61,-211.61 l -9.32,14.91 c 0,0 4.67,-63.39 -25.17,-91.36 l -8.39,17.72 c 0,0 -19.23,-61.22 -31.53,-80.18 l -5.76,13.05 -23.71,-65.11 -102.14,33.33 -24.15,92.23 c 0,0 51.18,154.18 57.71,159.2 6.53,5.03 158.85,117.82 158.85,117.82"
         style="fill:#201c1c;fill-opacity:1;fill-rule:nonzero;stroke:none"
         id="path138" /><path
         d="m 2660.43,2892.92 c 0,0 77.32,31.41 203.78,9.72 126.45,-21.7 198.28,-120.59 302.66,-477.69 104.38,-357.1 98.89,-538.4 98.89,-538.4 l -99.29,-643.72 -241.33,33.57 v 676.08 l -264.71,940.44"
         style="fill:#fefae0;fill-opacity:1;fill-rule:nonzero;stroke:none"
         id="path140" /><path
         d="m 2250.99,3400.31 c 0,0 -42.52,-134.24 -13.62,-211.61 l 9.32,14.91 c 0,0 -4.65,-63.39 25.17,-91.36 l 8.39,17.72 c 0,0 19.24,-61.22 31.54,-80.18 l 5.75,13.05 23.72,-65.11 102.14,33.33 24.14,92.23 c 0,0 -51.18,154.18 -57.7,159.2 -6.53,5.03 -158.85,117.82 -158.85,117.82"
         style="fill:#201c1c;fill-opacity:1;fill-rule:nonzero;stroke:none"
         id="path142" /><path
         d="m 2376.08,3120.59 -17.94,15.87 -3.08,-113.77 c -0.63,-23.41 -15.43,-44.08 -37.38,-52.22 -37.12,-13.77 -41.56,-64.62 -7.26,-84.39 48.47,-27.93 114.21,-55.29 179.64,-49.66 69.75,5.99 137.1,30.25 183.76,50.98 25.74,11.43 25.44,48.04 -0.4,59.23 -20.49,8.85 -33.97,28.79 -34.56,51.1 l -4.13,154.93 -258.65,-32.07"
         style="fill:#f4a4a0;fill-opacity:1;fill-rule:nonzero;stroke:none"
         id="path144" /><path
         d="m 2355.03,2915.01 c 0,0 474.47,92.55 570.58,-140.86 96.11,-233.42 34.57,-888.93 34.57,-888.93 l 30.99,-480.56 c 0,0 -102.98,89.25 -318.07,0 -215.09,-89.25 -611.84,-288.87 -688.61,-48.06 -87.34,273.98 -11.02,730.95 0,1331.85 1.99,108.56 -0.18,302.07 370.54,226.56"
         style="fill:#fefae0;fill-opacity:1;fill-rule:nonzero;stroke:none"
         id="path146" /><path
         d="m 2549.52,2823.39 c -97.18,0 -186.36,21.85 -238.9,37.96 5.68,-0.65 10.6,-1.21 14.27,-1.73 50.23,-6.84 101.06,-10.12 151.92,-10.12 57.49,0 115.01,4.19 171.71,12.15 14.13,1.99 40.51,5.93 62.96,11.27 -1.41,-2.11 -2.88,-4.12 -4.4,-6.04 -15.54,-19.65 -38.62,-31.83 -63.32,-35.98 -31.62,-5.3 -63.32,-7.51 -94.24,-7.51"
         style="fill:#f8de92;fill-opacity:1;fill-rule:nonzero;stroke:none"
         id="path148" /><path
         d="m 2303.43,3020.41 c 30.23,12.07 50.2,4.72 83.07,-2.62 38.02,-8.5 93.3,-17 201.67,4.54 42.41,8.44 108.95,18.8 132.79,-28.68 11.7,-23.31 4.03,-83.06 23.92,-94.79 30.76,-18.14 -64.32,-32.71 -96.36,-37.21 -106.86,-15.01 -216.63,-16.61 -323.63,-2.03 -26.19,3.7 -115.75,9.56 -97.58,32.75 59.77,76.28 19.29,105.36 76.12,128.04"
         style="fill:#fefae0;fill-opacity:1;fill-rule:nonzero;stroke:none"
         id="path150" /><path
         d="m 2389.54,3017.12 c -1.03,0.22 -2.04,0.44 -3.04,0.67 -8.23,1.83 -15.65,3.67 -22.63,5.21 -5.39,10.58 -7.87,18.07 -8.23,19.19 10.05,-9.79 21.47,-18.17 33.9,-25.07"
         style="fill:#ee9169;fill-opacity:1;fill-rule:nonzero;stroke:none"
         id="path152" /><path
         d="m 2637.36,3053.81 -0.29,11.19 c 2.67,3.34 5.01,6.69 6.99,10.04 2.17,2.94 4.31,5.98 6.4,9.08 -2.61,-6.75 -7,-17.54 -13.1,-30.31"
         style="fill:#1f1a16;fill-opacity:1;fill-rule:nonzero;stroke:none"
         id="path154" /><path
         d="m 2586.73,3022.05 c 11.2,6.74 21.86,14.71 31.76,23.97 0.68,0.63 1.35,1.26 2.02,1.91 6.32,5.56 11.92,11.29 16.56,17.07 l 0.29,-11.19 c -3.78,-7.95 -8.23,-16.66 -13.3,-25.66 -12.79,-1.41 -25.12,-3.67 -35.89,-5.82 -0.48,-0.09 -0.96,-0.19 -1.44,-0.28"
         style="fill:#ee9169;fill-opacity:1;fill-rule:nonzero;stroke:none"
         id="path156" /><path
         d="m 2506.76,2933.1 c -0.48,0 -0.96,0 -1.45,0.01 -85.04,1.53 -125.67,58.93 -141.44,89.89 6.98,-1.54 14.4,-3.38 22.63,-5.21 1,-0.23 2.01,-0.45 3.04,-0.67 27.66,-15.38 60.25,-23.44 93.54,-23.44 8.51,0 17.07,0.53 25.6,1.6 -0.25,-0.6 -0.51,-1.2 -0.77,-1.81 10.52,1.35 22.42,4.5 34.74,9.03 15.24,4.63 30.09,11.12 44.08,19.55 0.48,0.09 0.96,0.19 1.44,0.28 10.77,2.15 23.1,4.41 35.89,5.82 -24.88,-44.13 -64.93,-95.05 -117.3,-95.05"
         style="fill:#f8de92;fill-opacity:1;fill-rule:nonzero;stroke:none"
         id="path158" /><path
         d="m 2263.39,3379.05 c 15.14,139.35 94.24,257.55 258.61,241.98 252.74,-23.96 233.71,-446.8 96.49,-575.01 -83.2,-77.75 -219.93,-65.39 -278.47,14.07 -59.56,80.87 -88.81,206.77 -76.63,318.96"
         style="fill:#f4a4a0;fill-opacity:1;fill-rule:nonzero;stroke:none"
         id="path160" /><path
         d="m 2507.91,2993.47 c 0.26,0.61 0.52,1.21 0.77,1.81 11.43,1.43 22.81,3.82 33.97,7.22 -12.32,-4.53 -24.22,-7.68 -34.74,-9.03"
         style="fill:#f4c47f;fill-opacity:1;fill-rule:nonzero;stroke:none"
         id="path162" /><path
         d="m 2637.07,3065 -0.03,0.98 c 2.39,2.93 4.72,5.94 7.02,9.06 -1.98,-3.35 -4.32,-6.7 -6.99,-10.04"
         style="fill:#1f1815;fill-opacity:1;fill-rule:nonzero;stroke:none"
         id="path164" /><path
         d="m 2620.51,3047.93 c 5.72,5.52 11.24,11.55 16.53,18.05 l 0.03,-0.98 c -4.64,-5.78 -10.24,-11.51 -16.56,-17.07"
         style="fill:#e97e5b;fill-opacity:1;fill-rule:nonzero;stroke:none"
         id="path166" /><path
         d="m 2508.68,2995.28 c 30.51,72.6 -16.3,144.25 13.7,171.55 37.42,34.06 -7.77,30.74 -16.62,152.14 -3.98,54.62 19.96,162.89 19.96,162.89 l 64.1,29.44 c 8.02,-28.51 25.79,-65.33 65.04,-94.89 17.46,-13.15 30.24,-34.62 39.43,-56.55 -9.14,-9.95 -13.63,-21.54 -13.63,-21.54 v 0 0 l 12.74,-109.07 c 4.47,0 8.69,0.31 12.69,0.9 -11.15,-53.62 -33.05,-103.66 -61.34,-153.9 -0.22,-0.41 -0.45,-0.81 -0.69,-1.21 -2.3,-3.12 -4.63,-6.13 -7.02,-9.06 -5.29,-6.5 -10.81,-12.53 -16.53,-18.05 -21.28,-18.72 -50.61,-35.43 -77.86,-45.43 -11.16,-3.4 -22.54,-5.79 -33.97,-7.22"
         style="fill:#f0908c;fill-opacity:1;fill-rule:nonzero;stroke:none"
         id="path168" /><path
         d="m 2668.33,3498.66 c 0,0 -79.54,-47.12 -185.82,-46.05 -106.26,1.08 -150.14,35.43 -179.39,62.88 -29.25,27.45 -53.62,85.52 -51.67,129.61 1.94,44.08 6.27,10.75 33.36,-11.83 27.08,-22.58 24.16,6.69 9.54,33.45 -14.63,26.77 -14.63,60.1 2.92,49.35 17.55,-10.76 51.68,-48.39 76.05,-47.32 24.38,1.08 -20.48,20.43 -11.7,33.34 8.78,12.9 28.27,-31.19 96.52,-33.34 68.25,-2.15 154.05,0 197.92,-39.79 43.88,-39.78 12.27,-130.3 12.27,-130.3"
         style="fill:#201c1c;fill-opacity:1;fill-rule:nonzero;stroke:none"
         id="path170" /><path
         d="m 2583.33,3556.76 c 0,0 -3.86,-83.57 71.53,-140.35 47.69,-35.92 60.48,-133.92 60.48,-133.92 l 6.9,10.71 c 0,0 26.1,15 26.1,70.71 0,55.71 -8.39,88.93 -8.39,88.93 0,0 15.85,-48.22 15.85,-33.22 0,15 7.46,26.75 -12.12,61.05 -19.58,34.3 -13.99,33.36 -13.99,33.36 l 23.31,-23.7 c 0,0 -17.73,46.41 -35.06,75 -24.98,41.19 -63.78,60.25 -108.53,57.03 -44.75,-3.21 -26.08,-65.6 -26.08,-65.6"
         style="fill:#201c1c;fill-opacity:1;fill-rule:nonzero;stroke:none"
         id="path172" /><path
         d="m 2384.82,3555.42 c 0,0 -9.22,-84.44 -71.52,-143.18 -66.66,-62.84 -52.56,-144.28 -52.56,-144.28 l -14.82,18.58 c 0,0 -26.1,15.31 -26.1,72.14 0,56.84 8.39,90.72 8.39,90.72 0,0 -15.85,-49.19 -15.85,-33.88 0,15.3 -7.46,27.29 12.12,62.28 19.58,35 13.99,34.04 13.99,34.04 l -23.31,-24.18 c 0,0 17.73,47.34 35.06,76.51 24.97,42.03 63.78,61.46 108.53,58.19 44.74,-3.28 26.07,-66.94 26.07,-66.94"
         style="fill:#201c1c;fill-opacity:1;fill-rule:nonzero;stroke:none"
         id="path174" /><path
         d="m 2299.82,3338.32 c 0,0 -15.78,40.8 -48.48,34.96 -46.96,-8.39 -57.74,-144.03 35.74,-144.03"
         style="fill:#f4a4a0;fill-opacity:1;fill-rule:nonzero;stroke:none"
         id="path176" /><path
         d="m 2680.66,3338.32 c 0,0 15.79,40.8 48.49,34.96 46.96,-8.39 57.73,-144.03 -35.75,-144.03 l -12.74,109.07"
         style="fill:#f4a4a0;fill-opacity:1;fill-rule:nonzero;stroke:none"
         id="path178" /><path
         d="m 2693.4,3229.25 -12.74,109.07 c 0,0 13.75,35.53 42.16,35.53 2.03,0 4.14,-0.18 6.33,-0.57 21.32,-3.81 35.19,-33.86 35.21,-65.53 0.04,-38.08 -19.93,-78.5 -70.96,-78.5"
         style="fill:#f0908c;fill-opacity:1;fill-rule:nonzero;stroke:none"
         id="path180" /><path
         d="m 1956.1,3167.6 c -16.41,24.82 -27.08,42.89 -30.16,48.18 l 0.62,2.87 31.75,-47.26 -2.21,-3.79"
         style="fill:#c5d193;fill-opacity:1;fill-rule:nonzero;stroke:none"
         id="path182" /><path
         d="m 1891.61,3057.02 34.33,158.76 c 3.08,-5.29 13.75,-23.36 30.16,-48.18 l -64.49,-110.58"
         style="fill:#f8de92;fill-opacity:1;fill-rule:nonzero;stroke:none"
         id="path184" /><path
         d="m 1710.66,2759.44 291.86,-341.45 -25.45,-177.7 c 0,0 -212.85,325.12 -266.41,519.15"
         style="fill:#f8e4ac;fill-opacity:1;fill-rule:nonzero;stroke:none"
         id="path186" /><path
         d="m 2926.94,1428.94 36.18,521.35 -109.2,562.05 48.84,-559.86 -84.47,-509.77 108.65,-13.77"
         style="fill:#f8e4ac;fill-opacity:1;fill-rule:nonzero;stroke:none"
         id="path188" /><path
         d="m 2470.68,569.141 h -175.53 l 84.83,176.66 c 0,0 -33.7,0 -66.57,0 -32.87,0 73.05,47.469 112.3,314.229 5.77,39.22 22.84,156.9 22.84,156.9 l 82.19,-164.99 -60.06,-482.799"
         style="fill:#212e5d;fill-opacity:1;fill-rule:nonzero;stroke:none"
         id="path190" /><path
         d="m 3343.08,2819.22 -66.5,27.4 c 0,0 31.38,162.4 271.9,214.34 280.24,60.52 348.97,16.44 439.52,-95.59 l -644.92,-146.15"
         style="fill:#f78d11;fill-opacity:1;fill-rule:nonzero;stroke:none"
         id="path192" /><path
         d="m 3539.38,3095.11 -19.3,14.18 7.27,-113.59 c 1.5,-23.37 -11.36,-45.29 -32.49,-55.4 l -80.39,-38.44 c 0,0 138.4,-101.87 264.24,-79.4 125.83,22.47 238.19,104.87 238.19,104.87 l -65.6,21.54 c -21.2,6.96 -36.45,25.59 -39.06,47.76 l -18.18,153.91 -254.68,-55.43"
         style="fill:#f4a4a0;fill-opacity:1;fill-rule:nonzero;stroke:none"
         id="path194" /><path
         d="m 3803.02,3085.12 c -0.41,0.05 -0.84,0.11 -1.25,0.16 l -0.74,6.21 c 0.12,0.28 0.23,0.56 0.34,0.84 0.31,0.05 0.63,0.11 0.95,0.16 0.23,-2.51 0.46,-4.96 0.7,-7.37"
         style="fill:#c4af9e;fill-opacity:1;fill-rule:nonzero;stroke:none"
         id="path196" /><path
         d="m 3824.34,2967.61 c -0.05,0.07 -0.11,0.14 -0.16,0.21 0.06,-0.06 0.12,-0.12 0.19,-0.18 -0.01,0 -0.01,0 -0.01,0 0,0 -0.01,-0.01 -0.02,-0.03 m -5.38,8.07 c -3.51,6.37 -5.84,13.46 -6.72,20.95 l -0.43,3.61 c 1.68,-8.95 4,-17.89 7.15,-24.56 m -9.91,58.64 c -0.48,0.57 -0.97,1.14 -1.46,1.7 0,0 0,-0.02 0,-0.06 l -5.82,49.32 c 0.41,-0.05 0.84,-0.11 1.25,-0.16 1.95,-20.04 4,-36.8 6.03,-50.8"
         style="fill:#f06618;fill-opacity:1;fill-rule:nonzero;stroke:none"
         id="path198" /><path
         d="m 3707.09,2944.81 c -2.66,0 -5.4,0.02 -8.17,0.05 -101.34,1.37 -174.14,91.06 -174.14,91.06 l 0.73,2.95 c 29.26,-25.82 69.23,-39.13 110.48,-39.13 13.78,0 27.7,1.49 41.4,4.48 -0.18,-0.58 -0.37,-1.17 -0.57,-1.75 41.86,9.27 106.23,45.04 121.76,82.98 0.83,2.01 1.64,4.02 2.45,6.04 l 0.74,-6.21 5.82,-49.32 c 0.06,-1.16 0.97,-18.46 4.22,-35.72 l 0.43,-3.61 c 0.88,-7.49 3.21,-14.58 6.72,-20.95 1.53,-3.25 3.27,-5.96 5.22,-7.86 0.05,-0.07 0.11,-0.14 0.16,-0.21 -0.86,-0.83 -24.56,-22.8 -117.25,-22.8"
         style="fill:#ec7472;fill-opacity:1;fill-rule:nonzero;stroke:none"
         id="path200" /><path
         d="m 3669.44,3592.53 c 0,0 145.27,84.69 181.99,17.47 36.71,-67.23 4.8,-69.91 39.54,-110.16 27.59,-31.97 36.21,-74.02 12.42,-124.31 -18.22,-38.54 -14.97,-84.05 7.29,-120.39 l 0.98,-1.59 c 60.76,-69.27 -18.2,-164.12 -61.15,-160.21 -81.6,7.43 -106.14,-26.29 -101.35,-48.18 4.78,-21.88 -176.47,14.11 -176.47,14.11 0,0 -82.41,-23 -120.42,-20.01 -38.02,3 -90.21,15.98 -91.2,67.9 -0.99,51.93 57.27,77.52 14.68,110.66 -42.59,33.15 -105.53,119.62 -54.4,190.25 59.37,82.01 161.6,116.21 161.6,116.21 l 186.49,68.25"
         style="fill:#201c1c;fill-opacity:1;fill-rule:nonzero;stroke:none"
         id="path202" /><path
         d="m 3414.71,3342.93 c 2.28,131.9 66.3,249.44 221.68,248.89 238.92,-0.85 257.22,-398.76 139.59,-530.66 -71.34,-79.98 -200.54,-80.08 -262.19,-10.61 -62.74,70.7 -100.92,186.2 -99.08,292.38"
         style="fill:#f4a4a0;fill-opacity:1;fill-rule:nonzero;stroke:none"
         id="path204" /><path
         d="m 3801.03,3091.49 -0.09,0.77 c 0.15,0.03 0.29,0.05 0.43,0.07 -0.11,-0.28 -0.22,-0.56 -0.34,-0.84"
         style="fill:#c29e8e;fill-opacity:1;fill-rule:nonzero;stroke:none"
         id="path206" /><path
         d="m 3676.82,3002.47 c 0.2,0.58 0.39,1.17 0.57,1.75 36.6,8.01 71.71,26.81 98.59,56.94 8.04,9.03 15.46,19.3 22.21,30.61 0.91,0.17 1.82,0.33 2.75,0.49 l 0.09,-0.77 c -0.81,-2.02 -1.62,-4.03 -2.45,-6.04 -15.53,-37.94 -79.9,-73.71 -121.76,-82.98"
         style="fill:#e96864;fill-opacity:1;fill-rule:nonzero;stroke:none"
         id="path208" /><path
         d="m 3798.19,3091.77 c 3.69,6.18 7.18,12.67 10.47,19.43 -2.36,-6.34 -4.79,-12.63 -7.29,-18.87 -0.14,-0.02 -0.28,-0.04 -0.43,-0.07 -0.93,-0.16 -1.84,-0.32 -2.75,-0.49"
         style="fill:#1f1b1a;fill-opacity:1;fill-rule:nonzero;stroke:none"
         id="path210" /><path
         d="m 3677.39,3004.22 c 22.4,70.66 -27.6,133.8 -1.82,161.96 32.16,35.12 -9.91,28.14 -28.58,141.16 -6.89,41.71 0.74,118.84 3.7,145.24 3.69,-4.43 8.4,-7.89 14.4,-9.88 7.1,-2.35 14.18,-3.34 21.13,-3.34 18.44,0 36.03,6.97 50.99,13.93 14.96,6.97 27.3,13.94 35.26,13.94 7.08,0 10.71,-5.5 9.65,-21.38 -2.26,-34.01 3.84,-64.14 41.76,-64.14 1.11,0 2.25,0.03 3.41,0.08 0.36,0.01 0.72,0.02 1.07,0.02 1.05,0 2.06,-0.07 3.04,-0.21 0.02,-0.08 0.04,-0.17 0.06,-0.25 -9.92,-11.52 -12.5,-30.64 -12.5,-30.64 v 0 0 l 6.95,-84.43 c 6.08,-2.61 11.75,-4.2 17.01,-4.9 -3.26,-52.81 -16.67,-102.92 -34.26,-150.18 -3.29,-6.76 -6.78,-13.25 -10.47,-19.43 -6.75,-11.31 -14.17,-21.58 -22.21,-30.61 -26.88,-30.13 -61.99,-48.93 -98.59,-56.94"
         style="fill:#f1938f;fill-opacity:1;fill-rule:nonzero;stroke:none"
         id="path212" /><path
         d="M 3853.43,1462.22 V 940.891 l -109.2,-371.75 h -360.89 l -27.92,814.939 43.57,281.87 252.3,20.14 153.13,-88.05 49.01,-135.82"
         style="fill:#6279a6;fill-opacity:1;fill-rule:nonzero;stroke:none"
         id="path214" /><path
         d="m 3670.34,569.141 h -287 l -1.29,37.711 -21.63,631.528 c 61.35,-13.49 143,-16.13 197.49,-16.13 35,0 58.79,1.09 58.79,1.09 0,0 -19.06,198.34 -31.3,352.85 33.06,-4.58 69.56,-7.43 109.18,-7.43 25.95,0 53.25,1.22 81.8,3.99 l 54.42,-708.891 -2.08,-7.07 -37,502.581 -121.38,-790.229"
         style="fill:#5c73a1;fill-opacity:1;fill-rule:nonzero;stroke:none"
         id="path216" /><path
         d="m 3783.27,3594.71 c 0,0 -38.96,-156.58 -96.95,-153.69 -57.99,2.89 -84.25,18.22 -101.85,-2.02 -17.59,-20.24 -8.64,-70.85 -54.48,-76.3 -45.84,-5.45 -71.82,20.75 -89.42,-11.92 -17.61,-32.66 -86.71,-75.66 -103.47,-35.17 -16.75,40.5 -1.72,-40.12 -1.72,-40.12 0,0 -69,82.17 -10.36,149.63 43.62,50.18 16.85,59.26 19.93,107.27 3.07,48 40.89,84.69 113.5,86.07 72.62,1.39 87.03,83.58 155.35,62.91 68.32,-20.67 55.18,-42.35 102.96,-33.44 47.77,8.91 104.31,9.43 134.67,-37.93 30.35,-47.37 -68.16,-15.29 -68.16,-15.29"
         style="fill:#201c1c;fill-opacity:1;fill-rule:nonzero;stroke:none"
         id="path218" /><path
         d="m 4181.78,1827.74 c 0,0 102.79,-215.72 117.25,-521.32 14.47,-305.61 -25.62,-737.279 -25.62,-737.279 h -419.98 l -85.94,1119.359 -0.75,-2.41 415.04,141.65"
         style="fill:#6279a6;fill-opacity:1;fill-rule:nonzero;stroke:none"
         id="path220" /><path
         d="m 4170.07,3593.73 c 0,0 -63.16,52.68 -122.02,75.89 -58.87,23.21 -77.16,17.82 -127.55,37.36 -50.39,19.53 -133.85,32.17 -132.55,40.68 1.3,8.5 8.89,38.52 47.57,31.96 38.67,-6.55 79.5,-10.15 79.5,-10.15 l -132.13,119.89 c 0,0 -52.47,46.7 -32.15,65.52 10.89,10.1 42.19,-14.61 70.76,-39.31 25.78,-22.3 49.35,-44.6 53.68,-41.31 13.05,9.94 -43.41,75.99 -43.41,75.99 0,0 -63.45,68.73 -43.49,87.96 19.95,19.23 116.06,-109.21 116.06,-109.21 0,0 19.87,-17.76 20.84,-0.14 0.99,17.62 -83.04,113.87 -68.59,134.71 14.46,20.83 76.52,-68.98 76.52,-68.98 0,0 28.89,-56.22 42.39,-38.68 13.49,17.54 -39.76,104.77 -22.7,114.11 17.06,9.32 54.24,-61.26 64.82,-89.43 10.58,-28.17 33.32,-64.68 57.72,-87.35 24.4,-22.66 56.05,-53.61 54.54,-91.29 l 93.88,-61.97 -53.69,-146.25"
         style="fill:#f4a4a0;fill-opacity:1;fill-rule:nonzero;stroke:none"
         id="path222" /><path
         d="m 4034.97,3760.51 c -16.64,10.03 -51.08,12.2 -77.76,12.2 -20.32,0 -36.14,-1.26 -36.14,-1.26 22.49,7.05 74.57,28.07 74.57,28.07 l 39.33,-39.01"
         style="fill:#f19591;fill-opacity:1;fill-rule:nonzero;stroke:none"
         id="path224" /><path
         d="m 3457.76,3320.79 c 0,0 -21.06,68.02 -64.94,26.22 -43.89,-41.8 -5.85,-175.85 73.22,-125.07"
         style="fill:#f4a4a0;fill-opacity:1;fill-rule:nonzero;stroke:none"
         id="path226" /><path
         d="m 3857,3318.43 c 0,0 2.68,64.81 -29.71,63.36 -40.96,-1.84 -47.49,29.05 -45.17,64.06 2.25,33.76 -16.66,20.6 -44.91,7.44 -20.6,-9.59 -46.17,-19.18 -72.12,-10.59 -38.04,12.6 -24.35,84.6 -24.35,84.6 l 37.92,52.93 127.88,8.18 68.67,-100.45 -18.21,-169.53"
         style="fill:#201c1c;fill-opacity:1;fill-rule:nonzero;stroke:none"
         id="path228" /><path
         d="m 3818.96,3350.71 c 0,0 8.15,60.28 51.01,31.25 42.86,-29.04 29.71,-147.32 -44.06,-115.68 l -6.95,84.43"
         style="fill:#f4a4a0;fill-opacity:1;fill-rule:nonzero;stroke:none"
         id="path230" /><path
         d="m 3849.2,3260.95 c -2.03,0 -4.12,0.14 -6.28,0.43 -5.26,0.7 -10.93,2.29 -17.01,4.9 l -6.95,84.43 c 0,0 5.29,39.15 29.78,39.15 5.9,0 12.91,-2.27 21.23,-7.9 16.17,-10.95 24.36,-34.59 24.34,-58.1 -0.02,-31.58 -14.86,-62.91 -45.11,-62.91"
         style="fill:#f19591;fill-opacity:1;fill-rule:nonzero;stroke:none"
         id="path232" /><path
         d="m 3437.51,2908.09 c 0,0 90.89,-71.64 254.68,-35.69 163.79,35.95 171.31,72.46 171.31,72.46 l 140.29,-41.28 87.89,-163.01 c 0,0 65.91,-139.82 65.91,-151.81 0,-11.98 -35.95,-195.74 -35.95,-195.74 l 57.92,-643.18 c 0,0 -102.87,-137.42 -371.02,-173.38 -268.15,-35.94 -435.12,65.52 -435.12,65.52 v 479.39 367.53 311.59 l -16.8,99.87 80.89,7.73"
         style="fill:#fefae0;fill-opacity:1;fill-rule:nonzero;stroke:none"
         id="path234" /><path
         d="m 2785.12,1469.99 -124.8,-147.29 c -12.24,-14.46 -19.73,-32.33 -21.44,-51.19 l -9.75,-107.28 c -1.17,-12.85 0.79,-25.77 5.68,-37.72 8.1,-19.8 21.13,-50.12 30.24,-63.8 7.22,-10.81 17.8,-2.61 26.43,8.01 9.95,12.24 13.5,28.49 10.16,43.91 l -7.8,36 c -1.3,6 -0.57,12.26 2.07,17.81 l 45.41,95.36 c 2.34,4.92 7.42,7.94 12.85,7.64 l 15.55,-0.87 c 9.77,-0.54 15.69,-11.01 11.12,-19.66 l -39.44,-74.77 c -6.02,-11.39 3.98,-24.64 16.59,-21.98 l 15.56,3.28 c 7.58,1.6 14.6,5.17 20.38,10.33 l 68.63,61.48 c 12.33,11.04 20.38,26.07 22.76,42.45 l 17.51,120.6 -117.71,77.69"
         style="fill:#f4a4a0;fill-opacity:1;fill-rule:nonzero;stroke:none"
         id="path236" /><g
         id="g238"><g
           id="g240"
           clip-path="url(#clipPath244)"><path
             d="m 3320.67,2739.36 c 0,0 242.63,-88.44 735.52,27.93 v -258.73 c 0,0 -328.04,-136.91 -735.52,-39.16 v 269.96"
             style="fill:#264387;fill-opacity:1;fill-rule:nonzero;stroke:none"
             id="path246" /><path
             d="m 3344.64,2312.28 c 0,0 242.63,-88.43 735.52,27.93 v -258.73 c 0,0 -328.05,-136.91 -735.52,-39.17 v 269.97"
             style="fill:#264387;fill-opacity:1;fill-rule:nonzero;stroke:none"
             id="path248" /><path
             d="m 3368.61,1873.21 c 0,0 242.63,-88.43 735.52,27.93 v -258.72 c 0,0 -328.05,-136.91 -735.52,-39.17 v 269.96"
             style="fill:#264387;fill-opacity:1;fill-rule:nonzero;stroke:none"
             id="path250" /></g></g><path
         d="m 3844.52,2965.42 c 0,0 -18.15,-24.09 -1.89,-160.85 16.27,-136.78 -19.23,-256.87 -4.82,-396.98 14.42,-140.11 -42.71,-280.22 24.21,-457.01 66.94,-176.81 68.96,-627.16 68.96,-627.16 l 27.99,-60.04 c 0,0 283.56,3.33 393.65,93.4 0,0 13.34,156.78 -16.68,280.21 -30.03,123.43 -116.76,336.93 -123.43,495.38 -6.68,158.46 8.27,371.54 8.27,371.54 l -115.03,347.35 60.05,184.76 c 0,0 -123.52,-110.64 -321.28,-70.6"
         style="fill:#f78d11;fill-opacity:1;fill-rule:nonzero;stroke:none"
         id="path252" /><path
         d="m 3942.96,2884.62 42.54,66.06 c 86.91,56.04 206.72,132.53 257.23,222.77 l 46.5,83.05 -266.87,395.39 c 0,0 120.92,83.39 157.2,156.78 0,0 283.14,-185.04 396.56,-359.39 l 70.05,-128.32 c 0,0 16.68,-499.72 -513.73,-886.68 l -189.48,450.34"
         style="fill:#f78d11;fill-opacity:1;fill-rule:nonzero;stroke:none"
         id="path254" /><path
         d="m 3414.47,2901.86 c 0,0 54.13,-53.93 84.15,-177.36 30.02,-123.42 73.39,-276.88 76.73,-447.01 3.33,-170.13 0,-450.35 0,-537.08 0,-86.74 41.35,-517.07 41.35,-517.07 0,0 -291.54,-13.34 -334.91,53.38 0,0 36.69,326.91 40.03,413.65 3.34,86.73 3.34,150.12 6.67,293.56 3.34,143.44 -50.04,306.9 -46.7,410.32 3.33,103.41 -76.73,363.61 -76.73,363.61 0,0 85.23,154.56 209.41,144"
         style="fill:#f78d11;fill-opacity:1;fill-rule:nonzero;stroke:none"
         id="path256" /><path
         d="m 3356.62,2757.86 -80.04,88.76 c 0,0 -108.21,-42.05 -134.9,-222.2 -26.69,-180.13 -106.75,-577.1 -106.75,-577.1 0,0 -70.05,-86.74 -100.08,-146.78 -30.02,-60.05 -190.14,-443.68 -190.14,-443.68 0,0 123.42,-93.41 186.81,-96.74 0,0 349.82,400.3 425.1,547.09 75.28,146.78 0,850.65 0,850.65"
         style="fill:#f78d11;fill-opacity:1;fill-rule:nonzero;stroke:none"
         id="path258" /><path
         d="m 3979.36,2959.71 c 4.72,3.89 7.36,5.16 8.27,5.53 l 0.37,0.13 v 0 c 0,0 -1.01,-1.75 -2.85,-4.9 -1.91,-0.27 -3.85,-0.52 -5.79,-0.76"
         style="fill:#c6841b;fill-opacity:1;fill-rule:nonzero;stroke:none"
         id="path260" /><path
         d="m 3861.12,2729.23 29.99,92.57 c 9.82,26.96 19.7,50.53 27.88,62.82 31.38,47.17 50.46,66.91 60.37,75.09 1.94,0.24 3.88,0.49 5.79,0.76 -5.62,-9.64 -19.06,-32.35 -35.53,-58.09 -16.8,-26.26 -60.38,-97.09 -88.5,-173.15"
         style="fill:#f14a1c;fill-opacity:1;fill-rule:nonzero;stroke:none"
         id="path262" /><path
         d="m 3491.45,2642.7 c -53.43,72.94 -100.63,109.95 -122.84,131.83 -23.98,23.61 -63.01,48.97 -81.58,60.5 l -6.57,7.29 5.32,1.29 c 38.68,-13.58 74.98,-38.18 107.06,-66.28 l 98.61,-134.63"
         style="fill:#f14a1c;fill-opacity:1;fill-rule:nonzero;stroke:none"
         id="path264" /><path
         d="m 3287.03,2835.03 c -6.47,4.02 -10.45,6.35 -10.45,6.35 l 3.88,0.94 6.57,-7.29"
         style="fill:#f14a1c;fill-opacity:1;fill-rule:nonzero;stroke:none"
         id="path266" /><path
         d="m 3512.82,2953.7 c -40.54,-148.17 -5.12,-260.41 11.96,-335.39 0,0 -110.31,186.65 -248.2,228.31 0,0 271.09,234.48 236.24,107.08"
         style="fill:#f78d11;fill-opacity:1;fill-rule:nonzero;stroke:none"
         id="path268" /><path
         d="m 3819.13,2987.46 c 31.53,-105.94 26.58,-309.52 26.58,-309.52 0,0 46.07,165.79 73.28,206.68 50.35,75.66 69.01,80.75 69.01,80.75 0,0 -203.07,137.02 -168.87,22.09"
         style="fill:#f78d11;fill-opacity:1;fill-rule:nonzero;stroke:none"
         id="path270" /><path
         d="m 3494.12,2819.22 c -0.01,0.01 -0.01,0.01 -0.01,0.02 0,0.06 0,0.13 0,0.19 0,-0.14 0.01,-0.21 0.01,-0.21"
         style="fill:#f68912;fill-opacity:1;fill-rule:nonzero;stroke:none"
         id="path272" /><path
         d="m 3512.84,2953.77 c 6.87,25.19 1.78,36.21 -10.83,37.67 10.99,19.36 22.77,25.77 22.77,25.77 0.63,-1.9 1.14,-3.8 1.56,-5.67 l 1.01,-15.84 c 0.08,-1.12 0.11,-2.23 0.12,-3.33 -1.91,-20.43 -12.79,-36.1 -14.44,-38.38 -0.07,-0.07 -0.13,-0.15 -0.19,-0.22"
         style="fill:#f14a1c;fill-opacity:1;fill-rule:nonzero;stroke:none"
         id="path274" /><path
         d="m 3512.82,2953.7 v 0 c 0,0.02 0.01,0.05 0.02,0.07 0.06,0.07 0.12,0.15 0.19,0.22 -0.14,-0.19 -0.21,-0.29 -0.21,-0.29 v 0 m 14.65,38.67 c -0.01,1.1 -0.04,2.21 -0.12,3.33 l -1.01,15.84 c 1.48,-6.66 1.7,-13.13 1.13,-19.17"
         style="fill:#ed5a1a;fill-opacity:1;fill-rule:nonzero;stroke:none"
         id="path276" /><path
         d="m 3494.11,2819.24 c -21.06,93.79 -7.33,145.41 7.9,172.2 12.61,-1.46 17.7,-12.48 10.83,-37.67 -0.01,-0.02 -0.02,-0.05 -0.02,-0.07 v 0 c -20.06,-25.39 -18.79,-129 -18.71,-134.27 0,-0.06 0,-0.13 0,-0.19"
         style="fill:#f14a1c;fill-opacity:1;fill-rule:nonzero;stroke:none"
         id="path278" /><path
         d="m 3824.38,2967.56 v 0.01 l -0.01,0.06 c 0,-0.03 0.01,-0.05 0.01,-0.07"
         style="fill:#f14a1c;fill-opacity:1;fill-rule:nonzero;stroke:none"
         id="path280" /><path
         d="m 3832.8,2918.37 -8.42,49.2 v -0.01 c 3.56,-15.16 6.54,-31.65 9.04,-48.85 -0.21,-0.11 -0.42,-0.22 -0.62,-0.34"
         style="fill:#ed5a1a;fill-opacity:1;fill-rule:nonzero;stroke:none"
         id="path282" /><path
         d="m 3835.86,2900.48 -3.06,17.89 c 0.2,0.12 0.41,0.23 0.62,0.34 0.87,-6 1.68,-12.09 2.44,-18.23"
         style="fill:#f68912;fill-opacity:1;fill-rule:nonzero;stroke:none"
         id="path284" /><path
         d="m 3824.36,2967.64 c -0.1,0.19 -7.54,13.12 -15.31,66.68 3.19,-3.8 6.04,-7.84 8.58,-12.06 -3.43,-7.28 -3.35,-18.51 1.5,-34.8 1.87,-6.29 3.61,-12.91 5.23,-19.82"
         style="fill:#f14a1c;fill-opacity:1;fill-rule:nonzero;stroke:none"
         id="path286" /><path
         d="m 3824.37,2967.64 c -0.07,0.06 -0.13,0.12 -0.19,0.18 -1.95,2.47 -3.7,5.09 -5.22,7.86 -3.15,6.67 -5.47,15.61 -7.15,24.56 l -4.22,35.72 c 0,0.04 0,0.06 0,0.06 0.49,-0.56 0.98,-1.13 1.46,-1.7 7.77,-53.56 15.21,-66.49 15.31,-66.68 v 0"
         style="fill:#ec3820;fill-opacity:1;fill-rule:nonzero;stroke:none"
         id="path288" /><path
         d="m 3824.18,2967.82 c -1.95,1.9 -3.69,4.61 -5.22,7.86 1.52,-2.77 3.27,-5.39 5.22,-7.86 m -12.37,32.42 c -3.25,17.26 -4.16,34.56 -4.22,35.72 l 4.22,-35.72"
         style="fill:#e6431f;fill-opacity:1;fill-rule:nonzero;stroke:none"
         id="path290" /><path
         d="m 3835.87,2900.41 -0.01,0.07 c -0.76,6.14 -1.57,12.23 -2.44,18.23 -2.5,17.2 -5.48,33.69 -9.04,48.85 0,0.02 -0.01,0.04 -0.01,0.07 v 0.01 0 c -0.01,0 -0.01,0 -0.01,0 -1.62,6.91 -3.36,13.53 -5.23,19.82 -4.85,16.29 -4.93,27.52 -1.5,34.8 29.58,-48.99 18.24,-121.85 18.24,-121.85"
         style="fill:#f14a1c;fill-opacity:1;fill-rule:nonzero;stroke:none"
         id="path292" /><path
         d="m 3183.11,1662.13 93.47,282.46 50.08,389.5 V 1856.6 l -143.55,-194.47"
         style="fill:#f14a1c;fill-opacity:1;fill-rule:nonzero;stroke:none"
         id="path294" /><path
         d="m 4211.2,2178.36 c 0,0 -0.01,0.04 -0.03,0.13 -2.63,149.27 9.38,322.15 9.61,325.38 v 0 l -9.58,-325.51"
         style="fill:#c6841b;fill-opacity:1;fill-rule:nonzero;stroke:none"
         id="path296" /><path
         d="m 4211.17,2178.49 c -1.4,5.27 -43.49,165.68 -40.71,284.43 17.41,13.55 34.16,27.19 50.32,40.95 -0.23,-3.23 -12.24,-176.11 -9.61,-325.38"
         style="fill:#f14a1c;fill-opacity:1;fill-rule:nonzero;stroke:none"
         id="path298" /><path
         d="m 4170.46,2462.92 c 0.9,38.63 6.55,72.85 19.89,95.88 40.81,70.47 246.08,190.38 246.08,190.38 -71.65,-111.6 -215.65,-245.27 -215.65,-245.27 v -0.04 0 c -16.16,-13.76 -32.91,-27.4 -50.32,-40.95"
         style="fill:#f14a1c;fill-opacity:1;fill-rule:nonzero;stroke:none"
         id="path300" /><path
         d="m 4360.36,3121.48 -94.63,90.91 24.7,44.11 69.93,-135.02"
         style="fill:#f14a1c;fill-opacity:1;fill-rule:nonzero;stroke:none"
         id="path302" /><path
         d="m 3034.93,2047.32 v 0 0 m 0,0.01 5.61,28.01 v 0 c -3.49,-17.52 -5.53,-27.66 -5.61,-28.01"
         style="fill:#f68912;fill-opacity:1;fill-rule:nonzero;stroke:none"
         id="path304" /><path
         d="m 3034.93,2047.32 v 0 0 0.01 c 0.08,0.35 2.12,10.49 5.61,28.01 l 66.73,28.03 -72.34,-56.05"
         style="fill:#f14a1c;fill-opacity:1;fill-rule:nonzero;stroke:none"
         id="path306" /><path
         d="m 3744.23,569.141 h -73.89 73.89 l 12.29,41.839 c 0.62,0.012 1.2,0.012 1.82,0.02 l -14.11,-41.859"
         style="fill:#c1c9da;fill-opacity:1;fill-rule:nonzero;stroke:none"
         id="path308" /><path
         d="m 3756.52,610.98 72.2,245.809 2.24,-30.309 L 3758.34,611 c -0.62,-0.008 -1.2,-0.008 -1.82,-0.02"
         style="fill:#99b8ba;fill-opacity:1;fill-rule:nonzero;stroke:none"
         id="path310" /><path
         d="m 3744.23,569.141 h -73.89 l 121.38,790.229 37,-502.581 -84.49,-287.648"
         style="fill:#445887;fill-opacity:1;fill-rule:nonzero;stroke:none"
         id="path312" /><path
         d="m 1779.86,3111.58 30.28,189.54 c 0,0 131.53,-256.48 29.69,-514.18 0,0 -43.7,-203.94 -38.37,-240.29 5.33,-36.36 -125.2,0 -125.2,0 l -137.95,52.74 -16.79,342.18 258.34,170.01"
         style="fill:#201c1c;fill-opacity:1;fill-rule:nonzero;stroke:none"
         id="path314" /><path
         d="m 1767.73,2582.29 c -54.99,27.51 -113.04,43.52 -134.73,57.83 -4.91,3.59 -8.03,6.87 -8.69,9.66 v 0 c -0.11,0.5 -0.2,1.03 -0.27,1.59 -1.84,15.85 12.22,71.41 22.69,109.72 5.35,2.48 10.62,5.27 15.79,8.37 29.9,17.96 57.69,48.22 80.9,85.39 10.27,15.35 19.22,31.18 26.81,47.78 8.08,0.37 15.56,3.61 22.13,8.79 -6.12,-47.37 -14.7,-107.85 -23.71,-152.75 -8.76,-43.71 -5.86,-116.04 -0.92,-176.38"
         style="fill:#12110f;fill-opacity:1;fill-rule:nonzero;stroke:none"
         id="path316" /><path
         d="m 1657.52,2799.24 c 0,0 -38.75,-123.62 -33.21,-149.46 5.53,-25.82 164.37,-49.81 231.64,-132.85 67.27,-83.02 -232.19,-123.62 -232.19,-123.62 l -183.97,-42.44 -271.23,286 49.82,136.54 192.12,-73.8 42.21,167.9 204.81,-68.27"
         style="fill:#f4a4a0;fill-opacity:1;fill-rule:nonzero;stroke:none"
         id="path318" /><path
         d="m 1633,2640.12 c -4.95,3.27 -8.01,6.46 -8.69,9.66 0.66,-2.79 3.78,-6.07 8.69,-9.66 m -8.96,11.25 c -2.39,18.2 11.47,72.03 22.09,109.45 0.2,0.09 0.4,0.18 0.6,0.27 -10.47,-38.31 -24.53,-93.87 -22.69,-109.72"
         style="fill:#12100f;fill-opacity:1;fill-rule:nonzero;stroke:none"
         id="path320" /><path
         d="m 1640.16,2560.77 c -41.91,0 -86.89,7.9 -122.98,33.42 -71.09,50.26 -75.62,158.53 -73.41,209.76 26.9,-32.93 69.59,-53.98 115.1,-57.91 -0.33,-0.47 -0.66,-0.94 -1,-1.41 2.27,-0.19 4.65,-0.28 7.12,-0.28 5.15,0 10.7,0.4 16.52,1.16 21.85,0.88 43.85,5.79 64.62,15.31 -10.62,-37.42 -24.48,-91.25 -22.09,-109.45 0.06,-0.58 0.15,-1.11 0.27,-1.59 v 0 c 0.68,-3.2 3.74,-6.39 8.69,-9.66 31.38,-22.92 135.65,-58.32 135.65,-58.32 0,0 -60.15,-21.03 -128.49,-21.03"
         style="fill:#ee807c;fill-opacity:1;fill-rule:nonzero;stroke:none"
         id="path322" /><path
         d="m 1487.96,3204.09 -107.61,76.73 c 0,0 -122.89,-144.84 -144.68,-432.51 l 126.15,-102.94 59.73,-1.22 99.97,293.84 -33.56,166.1"
         style="fill:#201c1c;fill-opacity:1;fill-rule:nonzero;stroke:none"
         id="path324" /><path
         d="m 1418.62,3120.76 c 38.6,116.94 128.24,203.96 266.58,160.39 212.73,-66.99 118.74,-426.74 -22.68,-511.69 -85.75,-51.51 -200.94,-15.78 -236.63,63.23 -36.33,80.41 -38.34,193.93 -7.27,288.07"
         style="fill:#f4a4a0;fill-opacity:1;fill-rule:nonzero;stroke:none"
         id="path326" /><path
         d="m 1743.42,2854.85 c 9.32,14.92 17.89,30.94 25.57,47.75 0.42,0 0.83,0.01 1.24,0.03 -7.59,-16.6 -16.54,-32.43 -26.81,-47.78"
         style="fill:#12110f;fill-opacity:1;fill-rule:nonzero;stroke:none"
         id="path328" /><path
         d="m 1564.99,2744.35 c -2.47,0 -4.85,0.09 -7.12,0.28 0.34,0.47 0.67,0.94 1,1.41 5.14,-0.44 10.32,-0.67 15.51,-0.67 2.37,0 4.75,0.05 7.13,0.14 -5.82,-0.76 -11.37,-1.16 -16.52,-1.16"
         style="fill:#eb7270;fill-opacity:1;fill-rule:nonzero;stroke:none"
         id="path330" /><path
         d="m 1574.38,2745.37 c -5.19,0 -10.37,0.23 -15.51,0.67 39.54,56.77 12.48,126.91 43.27,144.86 38.4,22.39 -1.03,27.83 13.66,133.75 6.61,47.65 47.05,136.27 47.05,136.27 l 54.1,12.09 c 12.69,-54.14 32.05,-122.38 55.64,-159.68 -9.7,-7.97 -15.78,-20.4 -15.78,-20.4 l -18.7,-76.84 v 0 c 10.7,-9.49 21.04,-13.5 30.58,-13.5 0.1,0 0.2,0 0.3,0.01 -7.68,-16.81 -16.25,-32.83 -25.57,-47.75 -13.52,-20.2 -29.31,-39.58 -47.31,-58.82 -21.53,-23.03 -74.36,-45.27 -114.6,-50.52 -2.38,-0.09 -4.76,-0.14 -7.13,-0.14"
         style="fill:#f19591;fill-opacity:1;fill-rule:nonzero;stroke:none"
         id="path332" /><path
         d="m 1679.67,1424.25 c 0,0 140.47,-261.86 165.27,-855.109 H 637.691 c 0,0 -0.804,275 108.707,621.449 109.504,346.44 228.911,427.01 228.911,427.01 l 704.361,-193.35"
         style="fill:#96bd39;fill-opacity:1;fill-rule:nonzero;stroke:none"
         id="path334" /><path
         d="m 808.773,815.398 c 11.25,307.442 64.844,477.872 103.207,562.182 33.325,-0.9 62.133,-16.99 94.96,-36.84 C 890.723,1161.42 808.773,815.398 808.773,815.398"
         style="fill:#5a862d;fill-opacity:1;fill-rule:nonzero;stroke:none"
         id="path336" /><path
         d="m 1683.23,790.93 c 0,0 -30.73,288.02 -104.88,485.71 9.84,-0.82 19.65,-1.29 29.36,-1.29 21.88,0.01 43.24,2.39 63.21,8.55 19.81,-100.93 33.37,-258.83 12.31,-492.97"
         style="fill:#5a862d;fill-opacity:1;fill-rule:nonzero;stroke:none"
         id="path338" /><path
         d="m 1142.41,783.039 c -44.06,240.171 -43.41,401.831 -31.65,503.621 11.29,-4.2 23.24,-8.02 36,-11.31 17.64,-4.54 35.47,-6.85 53.3,-7.57 -53.55,-203.1 -57.65,-484.741 -57.65,-484.741"
         style="fill:#5a862d;fill-opacity:1;fill-rule:nonzero;stroke:none"
         id="path340" /><path
         d="m 1337.55,677.992 c -41.75,283.387 -46.34,478.098 -41.58,597.948 12.36,2.17 24.54,4.58 36.44,6.99 25.14,5.1 49.06,10.2 71.06,13.06 -42.71,-246.54 -65.92,-617.998 -65.92,-617.998"
         style="fill:#5a862d;fill-opacity:1;fill-rule:nonzero;stroke:none"
         id="path342" /><path
         d="m 1778.82,3319.59 c 0,0 23.42,-220.32 -151.9,-228.15 -175.31,-7.83 -169.72,47.52 -253.62,-53.45 -44.01,-52.96 -60.44,91.08 -47.54,150.76 22.37,103.52 262.89,321.15 453.06,130.84"
         style="fill:#201c1c;fill-opacity:1;fill-rule:nonzero;stroke:none"
         id="path344" /><path
         d="m 1700.51,3252.91 c 0,0 42.41,-250.95 100.95,-266.3 78.05,-20.46 95.93,294.21 -50.47,356.41 -131.39,55.84 -49.04,-105.48 -49.04,-105.48 l 85.35,-48.8 -86.79,64.17"
         style="fill:#201c1c;fill-opacity:1;fill-rule:nonzero;stroke:none"
         id="path346" /><path
         d="m 1593.06,2232.03 186.03,245.55 c 3.29,4.34 8.92,6.22 14.11,4.57 35.52,-11.29 166.25,-67.55 163.37,-283.05 -3.12,-234.21 -40.17,-448.02 -44.66,-473.07 -0.3,-1.69 -0.26,-3.25 0.12,-4.93 7.34,-32.9 74.87,-418.01 106.58,-511.88 33.29,-98.51 44.48,-174.79 11.19,-244.689 -33.28,-69.89 -109.42,-91.211 -114.24,-77.902 -4.3,11.84 38.52,57.492 39.31,94.441 0.06,2.532 1.54,4.789 1.22,7.301 l -4.96,39.669 c -1.51,12.12 -17.42,15.59 -23.86,5.22 l -15.52,-25.01 -0.52,-0.92 -7.56,-14.748 c -5.97,-11.641 -23.46,-8.121 -24.45,4.93 -2.39,31.738 5.55,69.408 3.08,76.868 -3.58,10.79 13.98,63.13 25,82.57 2.52,4.48 2.18,9.95 -0.89,14.06 -29.28,39.23 -176.26,238.59 -201.44,319.43 -26.51,85.12 -106.1,670.46 -114.43,732.08 -0.46,3.4 0.45,6.78 2.52,9.51"
         style="fill:#f4a4a0;fill-opacity:1;fill-rule:nonzero;stroke:none"
         id="path348" /><path
         d="m 1137.44,2581.8 46.08,109.07 -181.34,521.93 c -6.711,13.64 -10.653,28.47 -11.59,43.64 l -34.375,531.02 -142.699,33.55 -44.243,-576.24 c -5.601,-68.7 -0.351,-137.84 15.555,-204.89 l 210.594,-676.89 142.018,218.81"
         style="fill:#f4a4a0;fill-opacity:1;fill-rule:nonzero;stroke:none"
         id="path350" /><path
         d="m 1768.65,2581.8 -217.98,-287.73 c 0,0 85.78,-637.26 122.36,-800.06 128.38,184.08 237.99,235.22 237.99,235.22 0,0 46.79,253.41 50.52,532.72 3.73,279.32 -192.89,319.85 -192.89,319.85"
         style="fill:#236c55;fill-opacity:1;fill-rule:nonzero;stroke:none"
         id="path352" /><path
         d="m 964.375,3696.3 c 0,0 -14.246,75.43 -6.422,133.97 7.824,58.55 20.527,71.02 27.5,120.98 6.969,49.97 34.587,123.75 27.067,126.56 -7.53,2.81 -35.45,10.25 -47.68,-24.26 -12.238,-34.51 -27.852,-69.44 -27.852,-69.44 l -37.707,162.22 c 0,0 -14.234,63.99 -38.82,55.99 -25.078,-8.18 18.988,-133.81 9.187,-138.09 -14.035,-6.14 -42.238,69.91 -42.238,69.91 0,0 -27.207,82.97 -51.949,75.43 -24.746,-7.53 36.309,-144.25 36.309,-144.25 0,0 5.449,-24.27 -9.368,-17.07 -14.816,7.21 -55.101,119.46 -78.66,117.14 -23.562,-2.32 21.469,-93.72 21.469,-93.72 0,0 32.707,-49.11 12.273,-52.14 -9.836,-1.46 -25.812,17.03 -41.453,35.52 -16.843,19.93 -33.301,39.84 -41.265,34.83 -15.356,-9.67 25.297,-72.06 43.461,-93.49 18.16,-21.43 37.593,-56.55 44.992,-86.75 7.39,-30.2 18.238,-70.06 49.648,-85.96 l 7.867,-104.7 143.641,-22.68"
         style="fill:#f4a4a0;fill-opacity:1;fill-rule:nonzero;stroke:none"
         id="path354" /><path
         d="m 889.789,3882.24 -13.934,49.8 c 0,0 40.801,32.9 56.762,48.03 0,0 -43.918,-65.89 -42.828,-97.83"
         style="fill:#f19591;fill-opacity:1;fill-rule:nonzero;stroke:none"
         id="path356" /><path
         d="m 1002.18,3212.8 c -6.711,13.64 -10.653,28.47 -11.59,43.64 0,0 -79.563,-119.93 -218.129,-147.91 2.934,-23.05 6.988,-45.98 12.367,-68.65 l 184.813,-778.97 167.799,320.89 c 0,0 123.37,150.04 92.13,191.61 -107.05,142.39 -227.39,439.39 -227.39,439.39"
         style="fill:#236c55;fill-opacity:1;fill-rule:nonzero;stroke:none"
         id="path358" /><path
         d="m 1577.42,2547.65 c 63.09,-2.4 141.6,2.52 191.23,34.15 0,0 110.86,-46.34 138.82,-152.62 27.97,-106.27 -118.22,-241.29 -138.82,-408.71 -20.59,-167.41 -51.35,-421.92 -51.35,-421.92 0,0 52.12,-263.38 -17.29,-302.29 -69.41,-38.91 -164.5,-14.23 -240.01,0 -34.42,6.49 -78.72,-3.42 -127.59,-13.33 -58.36,-11.82 -123.25,-23.65 -185.65,-7.58 -114.66,29.55 -165.002,102.27 -237.717,102.27 -72.715,0 -145.43,13.98 -125.855,92.28 19.582,78.31 139.839,385.95 142.636,478.25 2.793,92.29 36.36,402.72 36.36,402.72 0,0 105.836,413.83 226.666,436.07 46.82,8.61 118.52,-65.39 118.52,-65.39 0,0 8.79,-24.15 34.36,-56.69 56.8,-72.27 143.84,-113.71 235.69,-117.21"
         style="fill:#236c55;fill-opacity:1;fill-rule:nonzero;stroke:none"
         id="path360" /><path
         d="m 1723.67,1561.31 c 0,0.01 -0.01,0.03 -0.01,0.05 31.41,38.65 60.76,69.19 86.47,93 0.01,-0.02 0.01,-0.03 0.01,-0.03 l -86.47,-93.02"
         style="fill:#4e6d5a;fill-opacity:1;fill-rule:nonzero;stroke:none"
         id="path362" /><path
         d="m 1723.66,1561.36 c -3.49,22.7 -6.36,37.19 -6.36,37.19 0,0 30.76,254.51 51.35,421.92 3.6,29.29 11.05,57.59 20.74,84.92 -4.74,-270.56 20.32,-448.04 20.74,-451.03 -25.71,-23.81 -55.06,-54.35 -86.47,-93"
         style="fill:#18402f;fill-opacity:1;fill-rule:nonzero;stroke:none"
         id="path364" /><path
         d="m 1722.12,1546.98 c -0.98,0 -2.52,10.87 -4.82,51.57 -6.13,108.31 73.72,570.53 73.72,570.53 -0.73,-21.74 -1.27,-43 -1.63,-63.69 -9.69,-27.33 -17.14,-55.63 -20.74,-84.92 -20.59,-167.41 -51.35,-421.92 -51.35,-421.92 0,0 2.87,-14.49 6.36,-37.19 0,-0.02 0.01,-0.04 0.01,-0.05 l -0.01,-0.01 c 0,0 -0.4,-14.32 -1.54,-14.32"
         style="fill:#18402f;fill-opacity:1;fill-rule:nonzero;stroke:none"
         id="path366" /><path
         d="m 1348.13,2904.16 c 0,0 -72.71,147.59 -103.48,8.3 -30.76,-139.28 -4.47,-234.67 5.1,-318.03 17.98,-156.74 -101.87,-238.21 -101.87,-238.21 0,0 268.7,-66.31 270.21,126.52 1.53,196.82 -21.23,153.24 7.8,294.01 7.53,36.55 -114.12,40.43 -77.76,127.41"
         style="fill:#201c1c;fill-opacity:1;fill-rule:nonzero;stroke:none"
         id="path368" /><path
         d="m 955.883,2291.22 c 0.039,0.39 0.082,0.78 0.121,1.16 -0.039,-0.39 -0.082,-0.77 -0.121,-1.16 m 0.336,3.23 c 0.644,6.85 -0.278,18.3 -2.414,33.2 l 4.086,-17.22 c -0.524,-4.96 -1.082,-10.31 -1.672,-15.98 m -92.899,414.59 c -5.906,21.91 -9.547,35.11 -9.547,35.11 l 2.426,-5.11 7.121,-30"
         style="fill:#49937c;fill-opacity:1;fill-rule:nonzero;stroke:none"
         id="path370" /><path
         d="m 957.891,2310.43 -4.086,17.22 c -12.676,88.44 -68.008,298.01 -90.485,381.39 l -7.121,30 135.938,-286.12 c -18.953,-59.04 -29.953,-102.05 -29.953,-102.05 0,0 -1.672,-15.43 -4.293,-40.44"
         style="fill:#18402f;fill-opacity:1;fill-rule:nonzero;stroke:none"
         id="path372" /><path
         d="m 935.902,2037.9 c 0,0 11.914,175.45 19.981,253.32 0.039,0.39 0.082,0.77 0.121,1.16 0.059,0.57 0.117,1.13 0.176,1.69 0.015,0.13 0.027,0.26 0.039,0.38 0.59,5.67 1.148,11.02 1.672,15.98 2.621,25.01 4.293,40.44 4.293,40.44 0,0 11,43.01 29.953,102.05 l 37.083,-78.07 -93.318,-336.95"
         style="fill:#18402f;fill-opacity:1;fill-rule:nonzero;stroke:none"
         id="path374" /><path
         d="m 1440.59,3056.49 c 0,0 -8.55,65.92 -55.57,34.46 -47.01,-31.47 -33.35,-160.81 47.45,-126.69"
         style="fill:#f4a4a0;fill-opacity:1;fill-rule:nonzero;stroke:none"
         id="path376" /><path
         d="m 1756.81,2992.93 c 0,0 24.97,50.99 54.39,12.66 29.42,-38.33 -17.06,-139.24 -73.09,-89.5 l 18.7,76.84"
         style="fill:#f4a4a0;fill-opacity:1;fill-rule:nonzero;stroke:none"
         id="path378" /><path
         d="m 1768.69,2902.59 c -9.54,0 -19.88,4.01 -30.58,13.5 l 18.7,76.84 c 0,0 13.19,26.94 31.69,26.94 6.96,0 14.66,-3.81 22.7,-14.28 6.27,-8.18 9.09,-19.2 9.11,-31.01 0.03,-32.96 -21.85,-71.99 -51.62,-71.99"
         style="fill:#f19591;fill-opacity:1;fill-rule:nonzero;stroke:none"
         id="path380" /><path
         d="m 6160.89,3225.7 c 0,0 -43.79,-40.38 -9.87,-15.19 70,51.99 237.57,28.7 270.56,-179.6 26.72,-168.78 -4.55,-235.6 138.35,-275.88 89.84,-25.33 150.52,-84.76 177.43,-176.27 26.92,-91.5 27.85,-183.82 127.76,-293.4 99.91,-109.59 -58.01,-297.9 -203.05,-308.49 -145.03,-10.59 -594.88,45.55 -594.88,45.55 l 93.7,1203.28"
         style="fill:#201c1c;fill-opacity:1;fill-rule:nonzero;stroke:none"
         id="path382" /><path
         d="m 6209.58,3234.73 c 0,0 0.66,24.6 -69.65,35.32 -152.08,23.21 -248.77,-76.7 -289.44,-225.23 -40.85,-149.14 23.45,-191.81 -104.36,-270.24 -127.8,-78.42 -190.01,-100.6 -210.34,-274.87 -20.33,-174.28 66.81,-164.86 0,-275.59 -66.81,-110.73 75.52,-247.25 75.52,-247.25 l 226.56,29.04 142.32,14.53 127.81,2.91 84.24,322.41 17.34,888.97"
         style="fill:#201c1c;fill-opacity:1;fill-rule:nonzero;stroke:none"
         id="path384" /><path
         d="m 6732.81,2263.11 c -16.54,57.99 -34.88,109 -54.66,146.45 -59.01,111.74 -149.11,136.6 -217.61,136.6 -2.99,0 -5.92,-0.05 -8.82,-0.14 -6.26,0.57 -12.78,0.87 -19.55,0.87 -4.92,0 -9.96,-0.16 -15.16,-0.47 v 0 c 0,0 -16.19,1.96 -36.24,7.31 l -39.74,15.51 c -18.87,7.36 -32.34,24.03 -35.79,43.68 -1.66,26.51 -4.37,68.07 -6.62,102.4 2.92,6.28 5.79,12.61 8.57,19 15.08,27.11 26.98,59.06 35.26,93.43 1.83,0.53 3.6,1.14 5.32,1.83 0.41,-3.54 0.74,-7.14 0.97,-10.81 0.06,-5.19 0.19,-10.23 0.41,-15.06 -0.08,-9.34 -0.76,-19.04 -2.15,-29.13 -11.24,-81.9 144.54,-114.22 243.36,-197.12 84.64,-71 127.59,-209.09 142.45,-314.35"
         style="fill:#12110f;fill-opacity:1;fill-rule:nonzero;stroke:none"
         id="path386" /><path
         d="m 5619.18,2326.26 c -20.72,214.79 158.91,315.55 244.59,354.64 91.84,41.9 60.04,93.68 60.04,93.68 -31.24,102.28 -18.11,172.72 1.34,216.51 -0.07,-0.92 -0.14,-1.84 -0.21,-2.75 -7.67,-106.37 24.26,-224.27 83.27,-298.6 2.82,-3.55 5.8,-6.94 8.95,-10.18 0.38,-0.89 0.8,-1.83 1.25,-2.82 l 0.39,-42.74 c 0.21,-23.52 -13.88,-44.8 -35.62,-53.77 l -82.71,-34.12 c 0,0 2.98,-2.03 8.62,-5.41 -9.34,-0.77 -18.2,-1.81 -26.65,-3.12 -4.88,0.64 -11.95,1.27 -20.75,1.27 -34.42,0 -95.33,-9.68 -155.81,-66.65 -27.69,-26.09 -57.96,-81.45 -86.7,-145.94"
         style="fill:#12110f;fill-opacity:1;fill-rule:nonzero;stroke:none"
         id="path388" /><path
         d="m 5875.66,1292.68 -215.93,-196.6 -6.03,-526.939 h 463.69 l 159.88,634.209 -401.61,89.33"
         style="fill:#264387;fill-opacity:1;fill-rule:nonzero;stroke:none"
         id="path390" /><path
         d="M 5920.18,569.141 H 5653.7 l 6.03,526.939 v 0 c 14.29,-19.05 194.2,-73.09 414.72,-96.471 -8.57,-33.629 -21.13,-66.129 -37.35,-96.847 -39.75,-75.293 -107.55,-207.66 -92.88,-207.66 0.48,0 1.06,0.148 1.74,0.449 22.55,10.019 57.04,37.508 71.31,49.269 l -1.79,-7.988 -95.3,-167.691"
         style="fill:#263f7f;fill-opacity:1;fill-rule:nonzero;stroke:none"
         id="path392" /><path
         d="M 6117.39,569.141 H 5981 h 1.97 -62.79 197.21 l 6.7,26.578 c 0.49,0.07 0.99,0.133 1.49,0.203 l -8.19,-26.781"
         style="fill:#a6bcd6;fill-opacity:1;fill-rule:nonzero;stroke:none"
         id="path394" /><path
         d="m 6124.09,595.719 32.32,128.191 1.18,-23.269 -32.01,-104.719 c -0.5,-0.07 -1,-0.133 -1.49,-0.203"
         style="fill:#81a9b7;fill-opacity:1;fill-rule:nonzero;stroke:none"
         id="path396" /><path
         d="m 6117.39,569.141 h -197.21 l 95.3,167.691 1.79,7.988 c -14.27,-11.761 -48.76,-39.25 -71.31,-49.269 -0.68,-0.301 -1.26,-0.449 -1.74,-0.449 -14.67,0 53.13,132.367 92.88,207.66 16.22,30.718 28.78,63.218 37.35,96.847 22.38,-2.371 45.16,-4.418 68.25,-6.097 l 13.71,-269.602 -39.02,-154.769"
         style="fill:#233164;fill-opacity:1;fill-rule:nonzero;stroke:none"
         id="path398" /><path
         d="m 6134.41,1156.48 343.07,235.06 c 101.61,69.62 238.85,-3.04 262.93,-123.84 48.65,-244.14 -26.05,-289.821 -70.62,-485.68 l -61.32,-212.879 h -444.19 l -29.87,587.339"
         style="fill:#264387;fill-opacity:1;fill-rule:nonzero;stroke:none"
         id="path400" /><path
         d="m 5306.59,2300.97 c 0,0 -29.94,70.84 -34.68,129.81 -4.74,58.99 5.06,73.89 1.29,124.29 -3.76,50.4 7.66,128.5 -0.31,129.65 -7.96,1.16 -36.87,2.53 -41.54,-33.85 -4.67,-36.39 -12.56,-73.9 -12.56,-73.9 l -71.29,150.85 c 0,0 -27.5,59.65 -49.87,46.59 -22.83,-13.31 46.94,-126.99 38.25,-133.26 -12.44,-8.98 -56.17,59.51 -56.17,59.51 0,0 -44.21,75.47 -66.85,62.85 -22.64,-12.62 66.11,-133.55 66.11,-133.55 0,0 10.48,-22.62 -5.55,-18.7 -16.03,3.92 -79.26,105.3 -101.84,98.03 -22.58,-7.26 40.88,-87.22 40.88,-87.22 0,0 42.43,-41.16 23.07,-48.45 -9.36,-3.53 -29.05,11.32 -48.35,26.18 -20.64,15.87 -40.84,31.75 -47.55,25.17 -13,-12.71 40.04,-65.18 62.35,-82.32 22.33,-17.13 48.8,-47.41 62.44,-75.41 13.64,-28 32.71,-64.74 66.83,-73.66 l 29.88,-100.85 145.46,8.24"
         style="fill:#f4a4a0;fill-opacity:1;fill-rule:nonzero;stroke:none"
         id="path402" /><path
         d="m 5194.16,2467.23 -24.2,45.8 c 0,0 32.99,40.86 45.41,59.06 0,0 -29.04,-73.82 -21.21,-104.86"
         style="fill:#f19591;fill-opacity:1;fill-rule:nonzero;stroke:none"
         id="path404" /><path
         d="m 6417.01,2546.42 c 0,0 -149.81,-30.57 -399.53,-7.57 -308.16,28.38 -300.13,-124.08 -286.87,-356.13 13.27,-232.06 27.05,-511.34 27.05,-511.34 0,0 -126.94,-536.62 -97.93,-575.3 29.01,-38.68 740.88,-221.619 1088.97,0.77 0,0 58.41,96.23 -106.22,485.44 -134.04,316.88 -49.7,637.06 -49.7,637.06 0,0 67.68,341.97 -175.77,327.07"
         style="fill:#be202a;fill-opacity:1;fill-rule:nonzero;stroke:none"
         id="path406" /><path
         d="m 5890.13,2536.28 c 0,0 -92.62,22.23 -184.25,-64.08 -91.44,-86.14 -210.93,-491.29 -210.93,-491.29 l -218.53,425.86 c 0,0 -47.67,-28.17 -146.83,-42.62 0,0 23.09,-918.39 311.83,-890.57 136.11,13.12 358.71,283.94 358.71,283.94 l 11.08,655.35 78.92,123.41"
         style="fill:#be202a;fill-opacity:1;fill-rule:nonzero;stroke:none"
         id="path408" /><path
         d="m 5464.25,1477.44 c -0.08,0.13 -0.16,0.26 -0.24,0.39 93.37,25.35 215.93,146.47 284.29,220.76 -24.67,-28.3 -171.81,-192.75 -284.05,-221.15"
         style="fill:#971e25;fill-opacity:1;fill-rule:nonzero;stroke:none"
         id="path410" /><path
         d="m 5441.42,1473.58 v 0 c 7.29,0.71 14.84,2.15 22.59,4.25 0.08,-0.13 0.16,-0.26 0.24,-0.39 -7.8,-1.97 -15.42,-3.29 -22.83,-3.86"
         style="fill:#131412;fill-opacity:1;fill-rule:nonzero;stroke:none"
         id="path412" /><path
         d="m 5441.42,1473.58 c 0,0 119.41,60.65 165.73,145.32 43.98,80.39 -7.37,98.93 9.35,125.02 53.3,83.18 114.11,326.13 114.11,326.13 l 21.27,-367.31 c 0,0 -1.23,-1.46 -3.58,-4.15 -68.36,-74.29 -190.92,-195.41 -284.29,-220.76 v 0 c -7.75,-2.1 -15.3,-3.54 -22.59,-4.25"
         style="fill:#89181d;fill-opacity:1;fill-rule:nonzero;stroke:none"
         id="path414" /><path
         d="m 6220.53,1350.69 234.77,440.46 -34,230.21 92.85,-244.43 -293.62,-426.24"
         style="fill:#89181d;fill-opacity:1;fill-rule:nonzero;stroke:none"
         id="path416" /><path
         d="m 6120.03,1051.42 144.15,183.15 53.25,-69.37 c 145.61,95.99 279.47,204.85 370.16,296.48 l 26.4,-70.59 -593.96,-339.67"
         style="fill:#89181d;fill-opacity:1;fill-rule:nonzero;stroke:none"
         id="path418" /><path
         d="m 5972.25,1077.55 c -5.28,12.83 12.03,19.95 55.88,38.22 1.65,0.69 9.65,9.91 11.48,10.7 6.86,3.65 -54.88,-24.05 -61.27,-12.57 -8.46,15.22 3.48,23.66 58.96,47.26 35.77,15.22 69.98,27.25 73.15,40.56 8.17,34.26 -89.31,23.1 -52.63,43.17 12.24,6.69 44.47,17.7 61.27,22.29 32.09,8.76 27.32,9.53 88.3,11.69 95.79,3.4 166.4,157.44 141.51,43.69 -8.33,-38.09 -19.52,-77.87 -44.97,-114.51 -50.61,-72.84 -132.42,-134.76 -183.9,-156.63 -3.33,-1.42 -6.59,-2.89 -9.81,-4.31 -25.72,-12.58 -50.37,-17.64 -55.08,-11.6 -7.18,9.2 23.44,26.29 47.46,36.07 6.88,2.81 -79.48,-31.84 -87.62,-21.64 -8.64,10.85 30.14,29.02 58.56,40.93 7.9,3.31 -93.27,-32.83 -101.29,-13.32"
         style="fill:#eb8878;fill-opacity:1;fill-rule:nonzero;stroke:none"
         id="path420" /><path
         d="m 6354.91,2530.18 h 9.67 c 0,0 207.24,80.7 313.57,-120.62 74.51,-141.04 128.37,-474.22 144.15,-650.15 7.05,-78.47 -15.6,-156.87 -64.16,-218.93 -79.97,-102.2 -250.3,-249.76 -440.71,-375.28 l -107.85,140.49 304.57,471.24 -168.1,442.52 c -40.92,107.71 -72.74,229.4 8.86,310.73"
         style="fill:#be202a;fill-opacity:1;fill-rule:nonzero;stroke:none"
         id="path422" /><path
         d="m 6036.33,2733.01 -18.58,15.27 1.05,-114.28 c 0.21,-23.52 -13.88,-44.8 -35.62,-53.77 l -82.71,-34.12 c 0,0 112.81,-76.61 260.56,-74.79 128.35,1.57 244.6,72.71 244.6,72.71 l -64.6,25.21 c -20.87,8.14 -35.13,27.66 -36.54,50.02 l -9.76,155.32 -258.4,-41.57"
         style="fill:#f4a4a0;fill-opacity:1;fill-rule:nonzero;stroke:none"
         id="path424" /><path
         d="m 6404.96,2544.29 -24.19,9.44 c 20.05,-5.35 36.24,-7.31 36.24,-7.31 0,0 -4.09,-0.84 -12.05,-2.13"
         style="fill:#12100f;fill-opacity:1;fill-rule:nonzero;stroke:none"
         id="path426" /><path
         d="m 6397.64,2539.43 c 5.19,2.89 7.99,4.6 7.99,4.6 l -0.67,0.26 c 7.96,1.29 12.05,2.13 12.05,2.13 v 0 c 0.13,-1.21 -0.69,-2.52 -2.5,-3.88 -6.08,-0.95 -11.72,-2.01 -16.87,-3.11"
         style="fill:#b71e24;fill-opacity:1;fill-rule:nonzero;stroke:none"
         id="path428" /><path
         d="m 6305.24,2612.92 c -0.36,2.09 -0.61,4.2 -0.75,6.34 l -6.02,95.74 c 0.05,0.11 0.1,0.21 0.15,0.32 2.25,-34.33 4.96,-75.89 6.62,-102.4"
         style="fill:#12100f;fill-opacity:1;fill-rule:nonzero;stroke:none"
         id="path430" /><path
         d="m 6018.41,2676.74 c -0.45,0.99 -0.87,1.93 -1.25,2.82 0.41,-0.42 0.82,-0.84 1.23,-1.26 l 0.02,-1.56"
         style="fill:#12100f;fill-opacity:1;fill-rule:nonzero;stroke:none"
         id="path432" /><path
         d="m 6386.35,2533.35 c 4.51,2.36 8.3,4.42 11.29,6.08 5.15,1.1 10.79,2.16 16.87,3.11 -4.12,-3.09 -13.35,-6.4 -28.16,-9.19"
         style="fill:#b71e24;fill-opacity:1;fill-rule:nonzero;stroke:none"
         id="path434" /><path
         d="m 6296.04,2526.88 c -24.68,0 -53.43,1.01 -86.46,3.44 -118.62,8.71 -174.71,109.94 -191.17,146.42 l -0.02,1.56 c 30.33,-30.44 74.52,-46.52 120.15,-46.52 10.36,0 20.81,0.83 31.17,2.51 -0.22,-0.57 -0.44,-1.15 -0.67,-1.73 42.47,7 108.99,39.34 126.64,76.51 0.94,1.97 1.87,3.95 2.79,5.93 l 6.02,-95.74 c 0.14,-2.14 0.39,-4.25 0.75,-6.34 0.06,-0.84 0.11,-1.67 0.16,-2.48 1.95,-31.2 43.53,-48.22 75.37,-56.71 l 24.19,-9.44 0.67,-0.26 c 0,0 -2.8,-1.71 -7.99,-4.6 -2.99,-1.66 -6.78,-3.72 -11.29,-6.08 -19.79,-3.71 -49.51,-6.47 -90.31,-6.47"
         style="fill:#ec7976;fill-opacity:1;fill-rule:nonzero;stroke:none"
         id="path436" /><path
         d="m 5924.94,2988.34 c 9.53,132.12 80.19,246.45 235.95,237.36 239.5,-13.98 235.99,-413.95 110.79,-539.74 -75.92,-76.27 -205.47,-69.27 -263.47,3.78 -59.01,74.33 -90.94,192.23 -83.27,298.6"
         style="fill:#f4a4a0;fill-opacity:1;fill-rule:nonzero;stroke:none"
         id="path438" /><path
         d="m 6298.62,2715.32 c -0.09,1.42 -0.18,2.83 -0.27,4.22 3.06,4.75 6.01,9.67 8.84,14.78 -2.78,-6.39 -5.65,-12.72 -8.57,-19"
         style="fill:#12110f;fill-opacity:1;fill-rule:nonzero;stroke:none"
         id="path440" /><path
         d="m 6298.47,2715 -0.27,4.31 c 0.05,0.08 0.1,0.15 0.15,0.23 0.09,-1.39 0.18,-2.8 0.27,-4.22 -0.05,-0.11 -0.1,-0.21 -0.15,-0.32"
         style="fill:#12100f;fill-opacity:1;fill-rule:nonzero;stroke:none"
         id="path442" /><path
         d="m 6169.04,2632.56 c 0.23,0.58 0.45,1.16 0.67,1.73 37.14,6.02 73.37,22.94 101.97,51.67 9.57,9.61 18.43,20.83 26.52,33.35 l 0.27,-4.31 c -0.92,-1.98 -1.85,-3.96 -2.79,-5.93 -17.65,-37.17 -84.17,-69.51 -126.64,-76.51"
         style="fill:#e86a68;fill-opacity:1;fill-rule:nonzero;stroke:none"
         id="path444" /><path
         d="m 6169.71,2634.29 c 26.33,69.61 -20.32,135.67 7.07,162.49 34.18,33.44 -8.38,28.76 -20.89,143.11 -5.64,51.45 13.27,154.51 13.27,154.51 l 5.6,2.82 c 10.65,-30.75 35.58,-74.84 91.56,-79.63 36.5,-3.12 56.99,-21.71 68.43,-47.82 -26.73,-4.03 -29.35,-39.99 -29.35,-39.99 v 0 0 l 8.59,-103.81 c 3.61,-0.46 7.07,-0.68 10.4,-0.68 5.38,0 10.39,0.58 15.05,1.67 -8.07,-32.17 -19.34,-63.03 -32.25,-92.64 -2.83,-5.11 -5.78,-10.03 -8.84,-14.78 -0.05,-0.08 -0.1,-0.15 -0.15,-0.23 -8.09,-12.52 -16.95,-23.74 -26.52,-33.35 -28.6,-28.73 -64.83,-45.65 -101.97,-51.67"
         style="fill:#f1938f;fill-opacity:1;fill-rule:nonzero;stroke:none"
         id="path446" /><path
         d="m 5535.79,1828.74 -40.84,152.17 20.42,65.64 20.42,-217.81"
         style="fill:#89181d;fill-opacity:1;fill-rule:nonzero;stroke:none"
         id="path448" /><path
         d="m 5858.49,3008.93 c 6.66,67.95 65.32,242.51 281.44,261.12 82.6,7.12 80.6,-137.23 21.9,-214.19 -38.21,-50.07 -80.5,-51.43 -142.16,-70.75 -118.37,-37.09 -95.86,-210.53 -95.86,-210.53 0,0 -70.68,179.62 -65.32,234.35"
         style="fill:#201c1c;fill-opacity:1;fill-rule:nonzero;stroke:none"
         id="path450" /><path
         d="m 6167.34,3127.13 c 0,0 12.09,-102.1 98.98,-109.54 145.9,-12.49 35.97,-272.01 115.09,-272.01 33.51,0 -1.99,187.47 -1.99,187.47 l -17.33,117.85 -32.35,103.99 -44.8,28.89 -94.7,49.98 -39.02,-37.06 16.12,-69.57"
         style="fill:#201c1c;fill-opacity:1;fill-rule:nonzero;stroke:none"
         id="path452" /><path
         d="m 5979.96,2926.88 c 0,0 -3.98,54.58 -52.12,36.79 -48.14,-17.8 -45.27,-151.99 43.53,-140.6"
         style="fill:#f4a4a0;fill-opacity:1;fill-rule:nonzero;stroke:none"
         id="path454" /><path
         d="m 6305.4,2929.78 c 0,0 3.97,54.58 52.12,36.79 48.14,-17.8 45.27,-151.99 -43.53,-140.6 l -8.59,103.81"
         style="fill:#f4a4a0;fill-opacity:1;fill-rule:nonzero;stroke:none"
         id="path456" /><path
         d="m 6324.39,2825.29 c -3.33,0 -6.79,0.22 -10.4,0.68 l -8.59,103.81 c 0,0 2.94,40.35 34.37,40.35 5.12,0 11,-1.07 17.75,-3.56 19.89,-7.36 31.07,-34.58 31.08,-63.19 0,-5.85 -0.46,-11.76 -1.41,-17.57 -3.95,-24.07 -16.28,-46.43 -38.49,-55.84 -7.08,-3 -15.17,-4.68 -24.31,-4.68"
         style="fill:#f1938f;fill-opacity:1;fill-rule:nonzero;stroke:none"
         id="path458" /></g></g></svg>
